<svg xmlns="http://www.w3.org/2000/svg" fill="none" viewBox="0 0 300 300">
  <defs/>
  <path fill="#161A1E" d="M42.9 85.8c3.6451 0 6.6-2.9549 6.6-6.6s-2.9549-6.6-6.6-6.6c-3.645 0-6.6 2.9549-6.6 6.6s2.955 6.6 6.6 6.6zM64.2 85.8c3.6451 0 6.6-2.9549 6.6-6.6s-2.9549-6.6-6.6-6.6-6.6 2.9549-6.6 6.6 2.9549 6.6 6.6 6.6zM85.2 85.8c3.6451 0 6.6-2.9549 6.6-6.6s-2.9549-6.6-6.6-6.6-6.6 2.9549-6.6 6.6 2.9549 6.6 6.6 6.6zM225.9 184.5H72.6c-2.4 0-4.5 2.1-4.5 4.5s2.1 4.5 4.5 4.5h153.3c2.4 0 4.5-2.1 4.5-4.5s-2.1-4.5-4.5-4.5zM200.1 205.5h-102c-2.4 0-4.5 2.1-4.5 4.5s2.1 4.5 4.5 4.5h102c2.4 0 4.5-2.1 4.5-4.5s-1.8-4.5-4.5-4.5z"/>
  <path fill="#161A1E" d="M258.6 54.9H39.9001C26.4001 54.9 15.3 66 15.3 79.5v142.8c0 13.5 11.1001 24.6 24.6001 24.6H258.6c13.5 0 24.6-11.1 24.6-24.6V79.5c0-13.8-11.1-24.6-24.6-24.6zM273.9 222c0 8.4-6.9 15.6-15.6 15.6H39.9001c-8.4 0-15.6-6.9-15.6-15.6V79.2c0-8.4 6.9-15.6 15.6-15.6H258.6c8.4 0 15.6 6.9 15.6 15.6l-.3 142.8z"/>
  <path fill="#DC3545" d="M186.3 122.1h-9l-21.6-18c-1.2-.9-3-.9-4.2.3-.6.6-.6 1.5-.6 2.1 0 .9.3 1.5.9 2.1l16.2 13.5h-38.1l16.2-13.5c.6-.6.9-1.2.9-2.1 0-.9-.3-1.5-.6-2.1-.9-1.2-3-1.2-4.2-.3l-21.6 18h-9c-1.2 0-2.4 1.2-2.4 2.4v10.2c0 1.2 1.2 2.4 2.4 2.4h3.3l8.4 22.8c0 .3 3 7.2 11.1 7.2h29.1c8.1-.3 11.1-7.2 11.1-7.5l8.4-22.8h3.3c1.2 0 2.4-1.2 2.4-2.4v-10.2c.3-1.2-.9-2.1-2.4-2.1zm-47.7 31.8c0 1.5-1.2 2.4-2.4 2.4-1.5 0-2.4-1.2-2.4-2.4v-11.1c0-1.5 1.2-2.4 2.4-2.4 1.5 0 2.4 1.2 2.4 2.4v11.1zm13.2 0c0 1.5-1.2 2.4-2.4 2.4-1.5 0-2.4-1.2-2.4-2.4v-11.1c0-1.5 1.2-2.4 2.4-2.4 1.5 0 2.4 1.2 2.4 2.4v11.1zm12.6 0c0 1.5-1.2 2.4-2.4 2.4-1.5 0-2.4-1.2-2.4-2.4v-11.1c0-1.5 1.2-2.4 2.4-2.4 1.5 0 2.4 1.2 2.4 2.4v11.1z"/>
</svg>