<svg width="266" height="150" viewBox="0 0 266 150" fill="none" xmlns="http://www.w3.org/2000/svg">
<path d="M0 0H266V150H0V0Z" fill="white"/>
<path d="M173.5 49H92.5C91.1193 49 90 50.1193 90 51.5C90 52.8807 91.1193 54 92.5 54H173.5C174.881 54 176 52.8807 176 51.5C176 50.1193 174.881 49 173.5 49Z" fill="#1D2024"/>
<path d="M163.5 58H102.5C101.119 58 100 59.1193 100 60.5C100 61.8807 101.119 63 102.5 63H163.5C164.881 63 166 61.8807 166 60.5C166 59.1193 164.881 58 163.5 58Z" fill="#1D2024"/>
<path d="M184 71H82C80.8954 71 80 71.8954 80 73C80 74.1046 80.8954 75 82 75H184C185.105 75 186 74.1046 186 73C186 71.8954 185.105 71 184 71Z" fill="#A0AEC0"/>
<path d="M179 79H86C84.8954 79 84 79.8954 84 81C84 82.1046 84.8954 83 86 83H179C180.105 83 181 82.1046 181 81C181 79.8954 180.105 79 179 79Z" fill="#A0AEC0"/>
<path d="M168 91H97C95.8954 91 95 91.8954 95 93V99C95 100.105 95.8954 101 97 101H168C169.105 101 170 100.105 170 99V93C170 91.8954 169.105 91 168 91Z" fill="#DC3545"/>
</svg>
