<svg width="266" height="150" viewBox="0 0 266 150" fill="none" xmlns="http://www.w3.org/2000/svg">
<path d="M0 0H266V150H0V0Z" fill="white"/>
<path d="M242 40H153C151.895 40 151 40.8954 151 42V108C151 109.105 151.895 110 153 110H242C243.105 110 244 109.105 244 108V42C244 40.8954 243.105 40 242 40Z" fill="#E2E8F0"/>
<path d="M103.5 61H22.5C21.1193 61 20 62.1193 20 63.5C20 64.8807 21.1193 66 22.5 66H103.5C104.881 66 106 64.8807 106 63.5C106 62.1193 104.881 61 103.5 61Z" fill="#1D2024"/>
<path d="M83.5 70H22.5C21.1193 70 20 71.1193 20 72.5C20 73.8807 21.1193 75 22.5 75H83.5C84.8807 75 86 73.8807 86 72.5C86 71.1193 84.8807 70 83.5 70Z" fill="#1D2024"/>
<path d="M124 79H22C20.8954 79 20 79.8954 20 81C20 82.1046 20.8954 83 22 83H124C125.105 83 126 82.1046 126 81C126 79.8954 125.105 79 124 79Z" fill="#A0AEC0"/>
<path d="M115 87H22C20.8954 87 20 87.8954 20 89C20 90.1046 20.8954 91 22 91H115C116.105 91 117 90.1046 117 89C117 87.8954 116.105 87 115 87Z" fill="#A0AEC0"/>
<path d="M233 91H162C160.895 91 160 91.8954 160 93V99C160 100.105 160.895 101 162 101H233C234.105 101 235 100.105 235 99V93C235 91.8954 234.105 91 233 91Z" fill="#DC3545"/>
<path d="M233 76H162C160.895 76 160 76.8954 160 78V84C160 85.1046 160.895 86 162 86H233C234.105 86 235 85.1046 235 84V78C235 76.8954 234.105 76 233 76Z" fill="#CBD5E0"/>
<path d="M233 61H162C160.895 61 160 61.8954 160 63V69C160 70.1046 160.895 71 162 71H233C234.105 71 235 70.1046 235 69V63C235 61.8954 234.105 61 233 61Z" fill="#CBD5E0"/>
<path d="M198 50H162C160.895 50 160 50.8954 160 52C160 53.1046 160.895 54 162 54H198C199.105 54 200 53.1046 200 52C200 50.8954 199.105 50 198 50Z" fill="#4A5568"/>
</svg>
