<svg width="266" height="150" viewBox="0 0 266 150" fill="none" xmlns="http://www.w3.org/2000/svg">
<path d="M0 0H266V150H0V0Z" fill="white"/>
<path d="M173.5 49H92.5C91.1193 49 90 50.1193 90 51.5C90 52.8807 91.1193 54 92.5 54H173.5C174.881 54 176 52.8807 176 51.5C176 50.1193 174.881 49 173.5 49Z" fill="#1D2024"/>
<path d="M163.5 58H102.5C101.119 58 100 59.1193 100 60.5C100 61.8807 101.119 63 102.5 63H163.5C164.881 63 166 61.8807 166 60.5C166 59.1193 164.881 58 163.5 58Z" fill="#1D2024"/>
<path d="M184 71H82C80.8954 71 80 71.8954 80 73C80 74.1046 80.8954 75 82 75H184C185.105 75 186 74.1046 186 73C186 71.8954 185.105 71 184 71Z" fill="#A0AEC0"/>
<path d="M179 79H86C84.8954 79 84 79.8954 84 81C84 82.1046 84.8954 83 86 83H179C180.105 83 181 82.1046 181 81C181 79.8954 180.105 79 179 79Z" fill="#A0AEC0"/>
<path d="M214.667 91H167.333C166.597 91 166 91.8954 166 93V99C166 100.105 166.597 101 167.333 101H214.667C215.403 101 216 100.105 216 99V93C216 91.8954 215.403 91 214.667 91Z" fill="#DC3545"/>
<path d="M98.6667 91H51.3333C50.597 91 50 91.8954 50 93V99C50 100.105 50.597 101 51.3333 101H98.6667C99.403 101 100 100.105 100 99V93C100 91.8954 99.403 91 98.6667 91Z" fill="#CBD5E0"/>
<path d="M156.667 91H109.333C108.597 91 108 91.8954 108 93V99C108 100.105 108.597 101 109.333 101H156.667C157.403 101 158 100.105 158 99V93C158 91.8954 157.403 91 156.667 91Z" fill="#CBD5E0"/>
</svg>
