<svg width="266" height="150" viewBox="0 0 266 150" fill="none" xmlns="http://www.w3.org/2000/svg">
<path d="M0 0H266V150H0V0Z" fill="white"/>
<rect x="55" y="13" width="156" height="125" rx="5" fill="#E2E8F0"/>
<path d="M55 18C55 15.2386 57.2386 13 60 13H206C208.761 13 211 15.2386 211 18V77H55V18Z" fill="#CBD5E0"/>
<path d="M119.778 62H146.222C146.718 62 147.209 61.9023 147.668 61.7124C148.126 61.5226 148.543 61.2443 148.893 60.8934C149.244 60.5426 149.523 60.1261 149.712 59.6678C149.902 59.2094 150 58.7181 150 58.222V31.778C150 30.776 149.602 29.8151 148.893 29.1066C148.185 28.398 147.224 28 146.222 28H119.778C118.776 28 117.815 28.398 117.107 29.1066C116.398 29.8151 116 30.776 116 31.778V58.222C116 58.7181 116.098 59.2094 116.288 59.6678C116.477 60.1261 116.756 60.5426 117.107 60.8934C117.457 61.2443 117.874 61.5226 118.332 61.7124C118.791 61.9023 119.282 62 119.778 62V62ZM119.778 62L140.556 41.222L150 50.667L119.778 62ZM129.222 38.389C129.222 39.1404 128.924 39.8609 128.392 40.3922C127.861 40.9235 127.14 41.222 126.389 41.222C125.638 41.222 124.917 40.9235 124.386 40.3922C123.854 39.8609 123.556 39.1404 123.556 38.389C123.556 37.6376 123.854 36.9171 124.386 36.3858C124.917 35.8545 125.638 35.556 126.389 35.556C127.14 35.556 127.861 35.8545 128.392 36.3858C128.924 36.9171 129.222 37.6376 129.222 38.389Z" stroke="#9AA5B4" stroke-width="3" stroke-linecap="round" stroke-linejoin="round"/>
<path d="M173.5 90H92.5C91.1193 90 90 91.1193 90 92.5C90 93.8807 91.1193 95 92.5 95H173.5C174.881 95 176 93.8807 176 92.5C176 91.1193 174.881 90 173.5 90Z" fill="#1D2024"/>
<path d="M163.5 99H102.5C101.119 99 100 100.119 100 101.5C100 102.881 101.119 104 102.5 104H163.5C164.881 104 166 102.881 166 101.5C166 100.119 164.881 99 163.5 99Z" fill="#1D2024"/>
<path d="M184 112H82C80.8954 112 80 112.895 80 114C80 115.105 80.8954 116 82 116H184C185.105 116 186 115.105 186 114C186 112.895 185.105 112 184 112Z" fill="#A0AEC0"/>
<path d="M179 120H86C84.8954 120 84 120.895 84 122C84 123.105 84.8954 124 86 124H179C180.105 124 181 123.105 181 122C181 120.895 180.105 120 179 120Z" fill="#A0AEC0"/>
</svg>
