<svg width="266" height="150" viewBox="0 0 266 150" fill="none" xmlns="http://www.w3.org/2000/svg">
<path d="M0 0H266V150H0V0Z" fill="white"/>
<rect x="16" y="13" width="234" height="125" rx="5" fill="#E2E8F0"/>
<path d="M16 18C16 15.2386 18.2386 13 21 13H119V138H21C18.2386 138 16 135.761 16 133V18Z" fill="#CBD5E0"/>
<path d="M54.778 92H81.222C81.7181 92 82.2094 91.9023 82.6678 91.7124C83.1261 91.5226 83.5426 91.2443 83.8934 90.8934C84.2443 90.5426 84.5226 90.1261 84.7124 89.6678C84.9023 89.2094 85 88.7181 85 88.222V61.778C85 60.776 84.602 59.8151 83.8934 59.1066C83.1849 58.398 82.224 58 81.222 58H54.778C53.776 58 52.8151 58.398 52.1066 59.1066C51.398 59.8151 51 60.776 51 61.778V88.222C51 88.7181 51.0977 89.2094 51.2876 89.6678C51.4774 90.1261 51.7557 90.5426 52.1066 90.8934C52.4574 91.2443 52.8739 91.5226 53.3322 91.7124C53.7906 91.9023 54.2819 92 54.778 92V92ZM54.778 92L75.556 71.222L85 80.667L54.778 92ZM64.222 68.389C64.222 69.1404 63.9235 69.8609 63.3922 70.3922C62.8609 70.9235 62.1404 71.222 61.389 71.222C60.6376 71.222 59.9171 70.9235 59.3858 70.3922C58.8545 69.8609 58.556 69.1404 58.556 68.389C58.556 67.6376 58.8545 66.9171 59.3858 66.3858C59.9171 65.8545 60.6376 65.556 61.389 65.556C62.1404 65.556 62.8609 65.8545 63.3922 66.3858C63.9235 66.9171 64.222 67.6376 64.222 68.389Z" stroke="#9AA5B4" stroke-width="3" stroke-linecap="round" stroke-linejoin="round"/>
<path d="M213.616 58H136.384C135.067 58 134 59.1193 134 60.5C134 61.8807 135.067 63 136.384 63H213.616C214.933 63 216 61.8807 216 60.5C216 59.1193 214.933 58 213.616 58Z" fill="#1D2024"/>
<path d="M194.614 67H136.386C135.068 67 134 68.1193 134 69.5C134 70.8807 135.068 72 136.386 72H194.614C195.932 72 197 70.8807 197 69.5C197 68.1193 195.932 67 194.614 67Z" fill="#1D2024"/>
<path d="M233.094 80H135.906C134.853 80 134 80.8954 134 82C134 83.1046 134.853 84 135.906 84H233.094C234.147 84 235 83.1046 235 82C235 80.8954 234.147 80 233.094 80Z" fill="#A0AEC0"/>
<path d="M224.103 88H135.897C134.849 88 134 88.8954 134 90C134 91.1046 134.849 92 135.897 92H224.103C225.151 92 226 91.1046 226 90C226 88.8954 225.151 88 224.103 88Z" fill="#A0AEC0"/>
</svg>
