<svg xmlns="http://www.w3.org/2000/svg" width="73" height="73"><path fill="#b8e2e4" d="M37 12l22-6 5 14zm34 34v6l-14 5 8-30z"/><path fill="#f3b256" d="M17 11l-7 6 19 19 7-7z"/><path fill="#ff6d6d" d="M7 2L3 4 1 6.998l6 6 7-7z"/><path d="M70.163 54.433L57.617 57.79l-3.313 12.368A3.87 3.87 0 0150.593 73h-.007c-.333 0-.667-.045-.991-.134L2.871 60.345a3.859 3.859 0 01-2.71-4.71l9.849-36.77-8.16-8.162A6.276 6.276 0 01.21 4.646 6.277 6.277 0 014.648.208a6.275 6.275 0 016.055 1.644l4.427 4.42a3.801 3.801 0 012.25-.079l18.053 4.84 21.543-5.78a3.881 3.881 0 014.704 2.72l2.93 10.938a3.84 3.84 0 012.215 4.516l-.506 1.88 6.552 24.424a3.856 3.856 0 01-2.708 4.702zm-8.746-36.437l-2.484-9.283a1.005 1.005 0 00-.466-.61 1.003 1.003 0 00-.761-.099h-.001l-16.779 4.5zm8.703 32.47l-5.276-19.662-6.376 23.808 10.956-2.929a1 1 0 00.696-1.218zM9.698 14.528l4.829-4.831-1.41-1.41-4.83 4.832zm23.64 13.985l-16.8-16.805-1.409 1.41 3.27 3.27a1.425 1.425 0 01-2.012 2.012l-3.27-3.27-1.409 1.41L28.51 33.344l1.41-1.41-10.112-10.112a1.412 1.412 0 01-.417-1.005c0-.38.147-.738.416-1.006a1.411 1.411 0 011.006-.417c.38 0 .737.147 1.005.416l10.11 10.114zm3.178 8.013l-1.793-5.38-3.584 3.588zM3.009 57.14c.133.23.349.395.607.464l46.72 12.517a.996.996 0 001.222-.705l12.514-46.73a.993.993 0 00-.099-.758.99.99 0 00-.607-.465L18.216 9.366l18.13 18.14c.137.142.244.31.312.491.016.025.028.05.035.077l2.656 7.955c.052.165.088.335.108.506L52.736 40.1a1.424 1.424 0 011.042 1.558 1.425 1.425 0 01-1.78 1.187l-13.817-3.71a2.63 2.63 0 01-2.155.23l-7.967-2.661a.218.218 0 01-.054-.027 1.38 1.38 0 01-.5-.314L12.334 21.189 2.91 56.38a.991.991 0 00.099.758zm.852-48.45l2.416 2.417 4.83-4.83-2.415-2.416A3.405 3.405 0 004.97 3.12a3.405 3.405 0 00-2.11 3.157c-.002.9.362 1.78 1 2.414zm51.897 20.132l-17.2-4.61a1.421 1.421 0 11.743-2.744l17.194 4.607a1.427 1.427 0 011.042 1.559 1.427 1.427 0 01-1.41 1.237c-.125 0-.249-.017-.369-.05zm-1.877 7.01l-11.694-3.13a1.421 1.421 0 11.738-2.746l11.69 3.128a1.426 1.426 0 011.042 1.559 1.427 1.427 0 01-1.409 1.237c-.124 0-.248-.016-.367-.048zM11.717 38.83a1.422 1.422 0 011.77-1.741l3.502.937a1.428 1.428 0 011.042 1.56 1.425 1.425 0 01-1.41 1.237 1.44 1.44 0 01-.369-.048l-3.508-.941a1.421 1.421 0 01-1.027-1.004zm10.618 2.1a1.428 1.428 0 011.646-1.028l.014.003 26.866 7.2a1.424 1.424 0 011.006 1.74 1.424 1.424 0 01-1.373 1.05h-.001c-.125 0-.25-.016-.37-.05l-26.877-7.202a1.427 1.427 0 01-.91-1.714zM9.867 45.103a1.427 1.427 0 011.735-1.008l3.508.94a1.425 1.425 0 011.043 1.56 1.425 1.425 0 01-1.409 1.236h-.008c-.122 0-.244-.017-.363-.05l-3.505-.937a1.426 1.426 0 01-1.001-1.741zm10.482 3.556a1.425 1.425 0 011.775-1.744l26.86 7.2a1.426 1.426 0 011.042 1.557 1.428 1.428 0 01-1.41 1.238c-.124 0-.25-.017-.37-.05l-26.864-7.2a1.423 1.423 0 01-1.033-1.001z"/></svg>