<svg xmlns="http://www.w3.org/2000/svg" width="73" height="74"><path fill="#ff6d6d" d="M9.359 52.18H.936v18.025l9.359-.95z"/><path fill="#f3b256" d="M62.705 6.64l.936 18.026h8.423V6.64z"/><path fill="#b8e2e4" d="M21.526.948L5.616 18.025l27.14 26.564 14.039-14.23-6.552-5.693-8.423-1.898-4.679-4.743.936-3.795 5.615-.948z"/><path d="M24.63 56.925a1.442 1.442 0 01-.11.552 1.431 1.431 0 01-1.037.864 1.374 1.374 0 01-.825-.082 1.43 1.43 0 01-.85-1.052 1.441 1.441 0 011.119-1.699 1.373 1.373 0 01.822.083 1.38 1.38 0 01.64.532 1.453 1.453 0 01.241.802zm37.318 8.032a1.358 1.358 0 01-.115.047l-21.956 7.97a11.225 11.225 0 01-4.723 1.025c-2.061 0-3.732-.535-4.588-.876l-.062-.027c-4.455-2.031-6.93-3.477-8.566-4.434-2.128-1.244-2.89-1.69-5.208-1.894v.416c0 .798-.638 1.445-1.426 1.445H11.33v1.248c0 .799-.639 1.445-1.426 1.445H1.426A1.435 1.435 0 010 69.877V51.652c0-.797.638-1.444 1.426-1.444h13.197c1.885-2.824 5.18-5.415 8.905-5.415 5.33 0 8.177 3.047 9.085 4.239l10.92 3.756.037.014c2.025.762 3.458 2.262 4.032 4.026l9.933-2.785c3.643-1.261 6.72-.111 8.033 3.002l.017.043c1.588 4.131-1.538 6.89-3.637 7.869zM8.478 53.098H2.851v15.333h5.625zm5.4 0h-2.55v12.64h2.55zm49.059 5.062c-.904-2.11-2.934-1.917-4.48-1.382l-10.705 3.007a5.655 5.655 0 01-2.762 3.775 5.54 5.54 0 01-4.28.505l-.04-.012-12.797-4.112a1.45 1.45 0 01-.928-1.814 1.421 1.421 0 011.79-.941l12.774 4.104c.708.198 1.45.109 2.093-.255a2.79 2.79 0 001.32-1.69c.44-1.566-.517-3.137-2.327-3.826l-11.331-3.9a1.426 1.426 0 01-.756-.61c-.081-.13-2.134-3.325-6.98-3.325-2.826 0-5.446 2.298-6.798 4.544V63.87c3.175.266 4.3.924 6.633 2.288 1.678.98 3.975 2.323 8.278 4.286 1.139.45 4.044 1.302 7.1-.123l.058-.025c.019-.007.045-.018.064-.024l21.946-7.967c.632-.305 3.063-1.668 2.127-4.145zM51.22 19.291a1.444 1.444 0 01-1.426 1.445 1.434 1.434 0 01-1.008-.423 1.402 1.402 0 01-.308-.47 1.446 1.446 0 011.038-1.97 1.402 1.402 0 011.07.217 1.352 1.352 0 01.393.399 1.447 1.447 0 01.241.802zM73 6.339v18.225c0 .798-.638 1.445-1.426 1.445H58.377c-1.885 2.823-5.18 5.414-8.905 5.414-.406 0-.797-.018-1.173-.05L33.803 46.067c-.565.573-1.582.44-2.016 0L4.657 18.563a1.448 1.448 0 010-2.045L20.532.422a1.412 1.412 0 012.017 0l4.836 4.903 5.737-2.083c4.06-1.865 7.86-.727 9.31-.149l.063.027c4.455 2.031 6.93 3.477 8.566 4.434 2.128 1.244 2.89 1.69 5.208 1.895v-.416c0-.799.638-1.446 1.426-1.446h3.975V6.34c0-.798.638-1.445 1.426-1.445h8.477c.788 0 1.426.647 1.426 1.445zm-54.708.443c.966.606 2.082.93 3.25.93a6.088 6.088 0 003.249-.93l-3.25-3.294zm-6.445 10.759c0-1.184-.32-2.316-.917-3.295L7.68 17.54l3.25 3.294c.598-.98.917-2.112.917-3.294zm24.197 22.167a6.134 6.134 0 00-6.498 0L32.796 43zm5.31-5.384a9.33 9.33 0 01-1.51-7.326l-4.814-1.657a8.236 8.236 0 01-2.115 3.73 8.048 8.048 0 01-5.747 2.41 8.048 8.048 0 01-5.747-2.41c-3.168-3.213-3.168-8.44 0-11.653a8.095 8.095 0 014.266-2.275 5.632 5.632 0 012.323-2.487 5.574 5.574 0 011.919-.664l-3.084-3.127a8.893 8.893 0 01-5.303 1.738 8.892 8.892 0 01-5.304-1.738l-3.254 3.298A9.186 9.186 0 0114.7 17.54a9.179 9.179 0 01-1.715 5.376l14.508 14.708a8.963 8.963 0 0110.606 0zM25.158 18.3a5.252 5.252 0 00-1.72 1.163c-2.057 2.085-2.057 5.478 0 7.564a5.231 5.231 0 007.461 0 5.346 5.346 0 001.42-2.618l-2.851-.981-.038-.014c-2.432-.915-4.01-2.895-4.272-5.114zm19.854 12.315a11.068 11.068 0 01-2.514-1.38c.05 1.06.36 2.097.91 3.006zm11.258-18.27c-3.175-.265-4.3-.923-6.633-2.287-1.678-.981-3.975-2.324-8.278-4.286-1.14-.45-4.044-1.302-7.1.122-.02.009-.039.018-.058.025a.134.134 0 01-.015.006l-.05.02-4.52 1.64 5.26 5.333.002.003.09.09 10.158 3.263a1.45 1.45 0 01.929 1.815 1.422 1.422 0 01-1.79.941l-12.774-4.104a2.727 2.727 0 00-2.093.254 2.79 2.79 0 00-1.32 1.689v.003c-.439 1.566.517 3.136 2.326 3.825l11.336 3.9c.348.12.62.362.786.663.019.027.142.192.172.235.545.702 2.202 2.477 5.28 2.93l.006.001c.464.068.96.106 1.488.106 2.825 0 5.446-2.299 6.798-4.545zm5.401-1.867h-2.55v12.64h2.55zm8.477-2.693h-5.625v15.333h5.625z"/></svg>