<svg width="266" height="150" viewBox="0 0 266 150" fill="none" xmlns="http://www.w3.org/2000/svg">
<path d="M0 0H266V150H0V0Z" fill="white"/>
<rect x="20" y="44" width="226" height="63" fill="#E2E8F0"/>
<rect x="25.5" y="49.5" width="215" height="52" stroke="#A0AEC0" stroke-dasharray="5 5"/>
<rect x="220" y="50" width="20" height="51" fill="#CCD7E7"/>
<rect x="26" y="50" width="20" height="51" fill="#CCD7E7"/>
<path d="M115.674 70.168V74.392C115.674 74.524 115.733 74.59 115.85 74.59H116.906C117.933 74.59 118.717 74.3773 119.26 73.952C119.803 73.512 120.074 72.9033 120.074 72.126C120.074 70.6007 119.069 69.838 117.06 69.838C116.605 69.838 116.209 69.8673 115.872 69.926C115.74 69.9553 115.674 70.036 115.674 70.168ZM113.254 83.28C112.917 83.28 112.623 83.1553 112.374 82.906C112.125 82.6567 112 82.3633 112 82.026V68.584C112 68.2173 112.117 67.902 112.352 67.638C112.601 67.374 112.902 67.2273 113.254 67.198C114.559 67.066 115.901 67 117.28 67C119.48 67 121.115 67.418 122.186 68.254C123.271 69.0753 123.814 70.2487 123.814 71.774C123.814 72.7567 123.528 73.644 122.956 74.436C122.384 75.2133 121.636 75.7707 120.712 76.108C120.697 76.108 120.69 76.1153 120.69 76.13C120.69 76.1593 120.705 76.174 120.734 76.174C121.453 76.5847 122.061 77.45 122.56 78.77L123.814 82.114C123.917 82.3927 123.88 82.6567 123.704 82.906C123.528 83.1553 123.293 83.28 123 83.28H121.658C121.277 83.28 120.932 83.17 120.624 82.95C120.316 82.73 120.103 82.444 119.986 82.092L118.886 78.924C118.681 78.308 118.431 77.89 118.138 77.67C117.845 77.45 117.39 77.34 116.774 77.34H115.85C115.733 77.34 115.674 77.406 115.674 77.538V82.026C115.674 82.3633 115.549 82.6567 115.3 82.906C115.051 83.1553 114.757 83.28 114.42 83.28H113.254Z" fill="#9AA5B4"/>
<path d="M132.324 74.92C131.972 74.3773 131.429 74.106 130.696 74.106C129.963 74.106 129.413 74.3773 129.046 74.92C128.694 75.4627 128.518 76.3427 128.518 77.56C128.518 78.7773 128.694 79.6573 129.046 80.2C129.413 80.7427 129.963 81.014 130.696 81.014C131.429 81.014 131.972 80.7427 132.324 80.2C132.691 79.6573 132.874 78.7773 132.874 77.56C132.874 76.3427 132.691 75.4627 132.324 74.92ZM134.942 81.938C133.93 82.9793 132.515 83.5 130.696 83.5C128.877 83.5 127.462 82.9793 126.45 81.938C125.438 80.8967 124.932 79.4373 124.932 77.56C124.932 75.6827 125.438 74.2233 126.45 73.182C127.462 72.1407 128.877 71.62 130.696 71.62C132.515 71.62 133.93 72.1407 134.942 73.182C135.954 74.2233 136.46 75.6827 136.46 77.56C136.46 79.4373 135.954 80.8967 134.942 81.938Z" fill="#9AA5B4"/>
<path d="M139.874 82.07L137.828 73.05C137.769 72.742 137.835 72.4633 138.026 72.214C138.216 71.9647 138.473 71.84 138.796 71.84H139.896C140.262 71.84 140.578 71.9573 140.842 72.192C141.106 72.4267 141.267 72.72 141.326 73.072L142.426 80.398C142.426 80.4127 142.433 80.42 142.448 80.42C142.462 80.42 142.47 80.4127 142.47 80.398L143.68 73.072C143.738 72.72 143.9 72.4267 144.164 72.192C144.428 71.9573 144.743 71.84 145.11 71.84H146.738C147.104 71.84 147.42 71.9573 147.684 72.192C147.962 72.4267 148.131 72.72 148.19 73.072L149.378 80.398C149.378 80.4127 149.385 80.42 149.4 80.42C149.414 80.42 149.422 80.4127 149.422 80.398L150.522 73.072C150.58 72.72 150.742 72.4267 151.006 72.192C151.27 71.9573 151.585 71.84 151.952 71.84H152.964C153.286 71.84 153.543 71.9647 153.734 72.214C153.939 72.4633 154.005 72.742 153.932 73.05L151.886 82.07C151.812 82.422 151.629 82.7153 151.336 82.95C151.042 83.17 150.712 83.28 150.346 83.28H148.63C148.263 83.28 147.94 83.1627 147.662 82.928C147.398 82.6933 147.229 82.4 147.156 82.048L145.902 74.942C145.902 74.9273 145.894 74.92 145.88 74.92C145.865 74.92 145.858 74.9273 145.858 74.942L144.604 82.048C144.545 82.4 144.376 82.6933 144.098 82.928C143.819 83.1627 143.496 83.28 143.13 83.28H141.414C141.047 83.28 140.717 83.17 140.424 82.95C140.13 82.7153 139.947 82.422 139.874 82.07Z" fill="#9AA5B4"/>
</svg>
