<svg width="266" height="150" viewBox="0 0 266 150" fill="none" xmlns="http://www.w3.org/2000/svg">
<path d="M0 0H266V150H0V0Z" fill="white"/>
<rect x="20" y="44" width="226" height="63" fill="#E2E8F0"/>
<rect x="20" y="44" width="20" height="63" fill="#CCD7E7"/>
<rect x="226" y="44" width="20" height="63" fill="#CCD7E7"/>
<rect x="14.5" y="38.5" width="237" height="74" stroke="#A0AEC0" stroke-dasharray="5 5"/>
<path d="M101.744 84.72C99.3387 84.72 97.4467 84.0087 96.068 82.586C94.6893 81.1633 94 79.1247 94 76.47C94 73.8593 94.6673 71.8353 96.002 70.398C97.3367 68.946 99.1993 68.22 101.59 68.22C102.734 68.22 103.731 68.3007 104.582 68.462C104.934 68.5207 105.22 68.6967 105.44 68.99C105.66 69.2833 105.77 69.6133 105.77 69.98V70.684C105.77 70.992 105.645 71.234 105.396 71.41C105.147 71.586 104.875 71.6373 104.582 71.564C103.746 71.344 102.895 71.234 102.03 71.234C100.71 71.234 99.676 71.6813 98.928 72.576C98.1947 73.4707 97.828 74.7687 97.828 76.47C97.828 78.142 98.224 79.44 99.016 80.364C99.808 81.288 100.864 81.75 102.184 81.75C103.064 81.75 103.922 81.64 104.758 81.42C105.051 81.3467 105.323 81.398 105.572 81.574C105.836 81.75 105.968 81.992 105.968 82.3V82.96C105.968 83.3267 105.851 83.6567 105.616 83.95C105.396 84.2433 105.11 84.4193 104.758 84.478C103.893 84.6393 102.888 84.72 101.744 84.72Z" fill="#9AA5B4"/>
<path d="M115.4 76.14C115.048 75.5973 114.505 75.326 113.772 75.326C113.038 75.326 112.488 75.5973 112.122 76.14C111.77 76.6827 111.594 77.5627 111.594 78.78C111.594 79.9973 111.77 80.8773 112.122 81.42C112.488 81.9627 113.038 82.234 113.772 82.234C114.505 82.234 115.048 81.9627 115.4 81.42C115.766 80.8773 115.95 79.9973 115.95 78.78C115.95 77.5627 115.766 76.6827 115.4 76.14ZM118.018 83.158C117.006 84.1993 115.59 84.72 113.772 84.72C111.953 84.72 110.538 84.1993 109.526 83.158C108.514 82.1167 108.008 80.6573 108.008 78.78C108.008 76.9027 108.514 75.4433 109.526 74.402C110.538 73.3607 111.953 72.84 113.772 72.84C115.59 72.84 117.006 73.3607 118.018 74.402C119.03 75.4433 119.536 76.9027 119.536 78.78C119.536 80.6573 119.03 82.1167 118.018 83.158Z" fill="#9AA5B4"/>
<path d="M123.472 84.5C123.135 84.5 122.842 84.3753 122.592 84.126C122.343 83.8767 122.218 83.5833 122.218 83.246V69.254C122.218 68.9167 122.343 68.6233 122.592 68.374C122.842 68.1247 123.135 68 123.472 68H124.704C125.042 68 125.335 68.1247 125.584 68.374C125.834 68.6233 125.958 68.9167 125.958 69.254V83.246C125.958 83.5833 125.834 83.8767 125.584 84.126C125.335 84.3753 125.042 84.5 124.704 84.5H123.472Z" fill="#9AA5B4"/>
<path d="M132.967 84.72C131.676 84.72 130.737 84.3607 130.151 83.642C129.579 82.9233 129.293 81.6913 129.293 79.946V74.314C129.293 73.9767 129.417 73.6833 129.667 73.434C129.916 73.1847 130.209 73.06 130.547 73.06H131.515C131.852 73.06 132.145 73.1847 132.395 73.434C132.644 73.6833 132.769 73.9767 132.769 74.314V79.704C132.769 80.5547 132.879 81.1413 133.099 81.464C133.333 81.772 133.729 81.926 134.287 81.926C134.8 81.926 135.269 81.7207 135.695 81.31C136.12 80.8847 136.333 80.43 136.333 79.946V74.314C136.333 73.9767 136.457 73.6833 136.707 73.434C136.956 73.1847 137.249 73.06 137.587 73.06H138.643C138.98 73.06 139.273 73.1847 139.523 73.434C139.772 73.6833 139.897 73.9767 139.897 74.314V83.246C139.897 83.5833 139.772 83.8767 139.523 84.126C139.273 84.3753 138.98 84.5 138.643 84.5H137.741C137.389 84.5 137.088 84.3827 136.839 84.148C136.604 83.8987 136.479 83.598 136.465 83.246V83.07C136.465 83.0553 136.457 83.048 136.443 83.048L136.399 83.092C135.445 84.1773 134.301 84.72 132.967 84.72Z" fill="#9AA5B4"/>
<path d="M144.063 84.5C143.726 84.5 143.432 84.3753 143.183 84.126C142.934 83.8767 142.809 83.5833 142.809 83.246V74.314C142.809 73.9767 142.934 73.6833 143.183 73.434C143.432 73.1847 143.726 73.06 144.063 73.06H144.877C145.229 73.06 145.522 73.1847 145.757 73.434C146.006 73.6687 146.146 73.962 146.175 74.314L146.197 74.512C146.197 74.5267 146.204 74.534 146.219 74.534C146.248 74.534 146.263 74.5267 146.263 74.512C147.128 73.3973 148.118 72.84 149.233 72.84C149.908 72.84 150.443 72.9647 150.839 73.214C151.235 73.4487 151.602 73.874 151.939 74.49C151.939 74.5193 151.954 74.534 151.983 74.534L152.027 74.49C153.039 73.39 154.095 72.84 155.195 72.84C156.442 72.84 157.344 73.1773 157.901 73.852C158.458 74.512 158.737 75.6413 158.737 77.24V83.246C158.737 83.5833 158.612 83.8767 158.363 84.126C158.114 84.3753 157.82 84.5 157.483 84.5H156.515C156.178 84.5 155.884 84.3753 155.635 84.126C155.386 83.8767 155.261 83.5833 155.261 83.246V77.46C155.261 76.668 155.173 76.1473 154.997 75.898C154.821 75.634 154.491 75.502 154.007 75.502C153.67 75.502 153.34 75.6413 153.017 75.92C152.709 76.1987 152.555 76.47 152.555 76.734V83.246C152.555 83.5833 152.43 83.8767 152.181 84.126C151.932 84.3753 151.638 84.5 151.301 84.5H150.333C149.996 84.5 149.702 84.3753 149.453 84.126C149.204 83.8767 149.079 83.5833 149.079 83.246V77.46C149.079 76.668 148.991 76.1473 148.815 75.898C148.654 75.634 148.331 75.502 147.847 75.502C147.51 75.502 147.18 75.6413 146.857 75.92C146.534 76.1987 146.373 76.47 146.373 76.734V83.246C146.373 83.5833 146.248 83.8767 145.999 84.126C145.75 84.3753 145.456 84.5 145.119 84.5H144.063Z" fill="#9AA5B4"/>
<path d="M162.754 84.5C162.417 84.5 162.123 84.3753 161.874 84.126C161.639 83.8767 161.522 83.5833 161.522 83.246V74.314C161.522 73.9767 161.639 73.6833 161.874 73.434C162.123 73.1847 162.417 73.06 162.754 73.06H163.656C164.008 73.06 164.301 73.1847 164.536 73.434C164.785 73.6687 164.917 73.962 164.932 74.314L164.954 74.49C164.954 74.5047 164.961 74.512 164.976 74.512L165.02 74.468C165.973 73.3827 167.117 72.84 168.452 72.84C169.787 72.84 170.747 73.2213 171.334 73.984C171.921 74.732 172.214 76.0153 172.214 77.834V83.246C172.214 83.5833 172.089 83.8767 171.84 84.126C171.605 84.3753 171.319 84.5 170.982 84.5H170.014C169.677 84.5 169.383 84.3753 169.134 84.126C168.885 83.8767 168.76 83.5833 168.76 83.246V77.944C168.76 77.064 168.643 76.4627 168.408 76.14C168.173 75.8027 167.748 75.634 167.132 75.634C166.619 75.634 166.142 75.8467 165.702 76.272C165.277 76.6827 165.064 77.13 165.064 77.614V83.246C165.064 83.5833 164.939 83.8767 164.69 84.126C164.455 84.3753 164.169 84.5 163.832 84.5H162.754Z" fill="#9AA5B4"/>
</svg>
