<svg width="266" height="150" viewBox="0 0 266 150" fill="none" xmlns="http://www.w3.org/2000/svg">
<path d="M0 0H266V150H0V0Z" fill="white"/>
<rect x="20" y="44" width="226" height="63" fill="#E2E8F0"/>
<rect x="20" y="44" width="20" height="62" fill="#CCD7E7"/>
<rect x="226" y="44" width="20" height="63" fill="#CCD7E7"/>
<rect x="45.5" y="49.5" width="175" height="52" stroke="#A0AEC0" stroke-dasharray="5 5"/>
<path d="M86.744 83.72C84.3387 83.72 82.4467 83.0087 81.068 81.586C79.6893 80.1633 79 78.1247 79 75.47C79 72.8593 79.6673 70.8353 81.002 69.398C82.3367 67.946 84.1993 67.22 86.59 67.22C87.734 67.22 88.7313 67.3007 89.582 67.462C89.934 67.5207 90.22 67.6967 90.44 67.99C90.66 68.2833 90.77 68.6133 90.77 68.98V69.684C90.77 69.992 90.6453 70.234 90.396 70.41C90.1467 70.586 89.8753 70.6373 89.582 70.564C88.746 70.344 87.8953 70.234 87.03 70.234C85.71 70.234 84.676 70.6813 83.928 71.576C83.1947 72.4707 82.828 73.7687 82.828 75.47C82.828 77.142 83.224 78.44 84.016 79.364C84.808 80.288 85.864 80.75 87.184 80.75C88.064 80.75 88.922 80.64 89.758 80.42C90.0513 80.3467 90.3227 80.398 90.572 80.574C90.836 80.75 90.968 80.992 90.968 81.3V81.96C90.968 82.3267 90.8507 82.6567 90.616 82.95C90.396 83.2433 90.11 83.4193 89.758 83.478C88.8927 83.6393 87.888 83.72 86.744 83.72Z" fill="#9AA5B4"/>
<path d="M100.4 75.14C100.048 74.5973 99.5051 74.326 98.7718 74.326C98.0385 74.326 97.4885 74.5973 97.1218 75.14C96.7698 75.6827 96.5938 76.5627 96.5938 77.78C96.5938 78.9973 96.7698 79.8773 97.1218 80.42C97.4885 80.9627 98.0385 81.234 98.7718 81.234C99.5051 81.234 100.048 80.9627 100.4 80.42C100.766 79.8773 100.95 78.9973 100.95 77.78C100.95 76.5627 100.766 75.6827 100.4 75.14ZM103.018 82.158C102.006 83.1993 100.59 83.72 98.7718 83.72C96.9531 83.72 95.5378 83.1993 94.5258 82.158C93.5138 81.1167 93.0078 79.6573 93.0078 77.78C93.0078 75.9027 93.5138 74.4433 94.5258 73.402C95.5378 72.3607 96.9531 71.84 98.7718 71.84C100.59 71.84 102.006 72.3607 103.018 73.402C104.03 74.4433 104.536 75.9027 104.536 77.78C104.536 79.6573 104.03 81.1167 103.018 82.158Z" fill="#9AA5B4"/>
<path d="M107.9 83.5C107.563 83.5 107.27 83.3753 107.02 83.126C106.786 82.8767 106.668 82.5833 106.668 82.246V73.314C106.668 72.9767 106.786 72.6833 107.02 72.434C107.27 72.1847 107.563 72.06 107.9 72.06H108.802C109.154 72.06 109.448 72.1847 109.682 72.434C109.932 72.6687 110.064 72.962 110.078 73.314L110.1 73.49C110.1 73.5047 110.108 73.512 110.122 73.512L110.166 73.468C111.12 72.3827 112.264 71.84 113.598 71.84C114.933 71.84 115.894 72.2213 116.48 72.984C117.067 73.732 117.36 75.0153 117.36 76.834V82.246C117.36 82.5833 117.236 82.8767 116.986 83.126C116.752 83.3753 116.466 83.5 116.128 83.5H115.16C114.823 83.5 114.53 83.3753 114.28 83.126C114.031 82.8767 113.906 82.5833 113.906 82.246V76.944C113.906 76.064 113.789 75.4627 113.554 75.14C113.32 74.8027 112.894 74.634 112.278 74.634C111.765 74.634 111.288 74.8467 110.848 75.272C110.423 75.6827 110.21 76.13 110.21 76.614V82.246C110.21 82.5833 110.086 82.8767 109.836 83.126C109.602 83.3753 109.316 83.5 108.978 83.5H107.9Z" fill="#9AA5B4"/>
<path d="M120.435 74.986C120.098 74.986 119.804 74.8687 119.555 74.634C119.306 74.3847 119.181 74.0913 119.181 73.754C119.181 73.4167 119.306 73.1233 119.555 72.874C119.804 72.6247 120.098 72.5 120.435 72.5H121.315C121.432 72.5 121.491 72.434 121.491 72.302V69.574C121.491 69.2367 121.616 68.9433 121.865 68.694C122.114 68.4447 122.408 68.32 122.745 68.32H123.801C124.138 68.32 124.432 68.4447 124.681 68.694C124.93 68.9433 125.055 69.2367 125.055 69.574V72.302C125.055 72.434 125.121 72.5 125.253 72.5H127.409C127.746 72.5 128.032 72.6247 128.267 72.874C128.516 73.1233 128.641 73.4167 128.641 73.754C128.641 74.0913 128.516 74.3847 128.267 74.634C128.032 74.8687 127.746 74.986 127.409 74.986H125.253C125.121 74.986 125.055 75.052 125.055 75.184V78.946C125.055 79.87 125.136 80.4567 125.297 80.706C125.473 80.9553 125.854 81.08 126.441 81.08C126.749 81.08 126.991 81.0653 127.167 81.036C127.49 80.992 127.776 81.0653 128.025 81.256C128.274 81.4467 128.399 81.696 128.399 82.004V82.18C128.399 82.5467 128.282 82.8693 128.047 83.148C127.812 83.4267 127.512 83.588 127.145 83.632C126.69 83.6907 126.162 83.72 125.561 83.72C124.065 83.72 123.009 83.4047 122.393 82.774C121.792 82.1287 121.491 80.9773 121.491 79.32V75.184C121.491 75.052 121.432 74.986 121.315 74.986H120.435Z" fill="#9AA5B4"/>
<path d="M136.722 78.264C134.933 78.264 134.039 78.814 134.039 79.914C134.039 80.31 134.156 80.6253 134.391 80.86C134.625 81.08 134.941 81.19 135.337 81.19C136.041 81.19 136.613 80.97 137.053 80.53C137.493 80.0753 137.713 79.474 137.713 78.726V78.462C137.713 78.33 137.646 78.264 137.514 78.264H136.722ZM134.259 83.72C133.247 83.72 132.41 83.3973 131.75 82.752C131.105 82.092 130.783 81.2413 130.783 80.2C130.783 77.5307 132.762 76.196 136.722 76.196H137.514C137.646 76.196 137.713 76.1373 137.713 76.02V75.91C137.713 75.3527 137.566 74.9493 137.273 74.7C136.994 74.4507 136.517 74.326 135.843 74.326C134.948 74.326 133.877 74.4653 132.631 74.744C132.323 74.8027 132.044 74.7367 131.795 74.546C131.56 74.3553 131.443 74.106 131.443 73.798V73.754C131.443 73.3873 131.552 73.0573 131.772 72.764C132.007 72.456 132.301 72.2727 132.653 72.214C133.943 71.9647 135.058 71.84 135.997 71.84C137.918 71.84 139.275 72.1847 140.067 72.874C140.873 73.5633 141.277 74.7073 141.277 76.306V82.246C141.277 82.5833 141.152 82.8767 140.903 83.126C140.653 83.3753 140.36 83.5 140.023 83.5H139.208C138.856 83.5 138.556 83.3827 138.306 83.148C138.057 82.8987 137.925 82.598 137.91 82.246V82.004C137.91 81.9893 137.903 81.982 137.889 81.982C137.859 81.982 137.845 81.9893 137.845 82.004C136.921 83.148 135.725 83.72 134.259 83.72Z" fill="#9AA5B4"/>
<path d="M145.877 83.5C145.539 83.5 145.246 83.3753 144.997 83.126C144.747 82.8767 144.623 82.5833 144.623 82.246V73.314C144.623 72.9767 144.747 72.6833 144.997 72.434C145.246 72.1847 145.539 72.06 145.877 72.06H147.109C147.446 72.06 147.739 72.1847 147.989 72.434C148.238 72.6833 148.363 72.9767 148.363 73.314V82.246C148.363 82.5833 148.238 82.8767 147.989 83.126C147.739 83.3753 147.446 83.5 147.109 83.5H145.877ZM145.877 69.86C145.539 69.86 145.246 69.7353 144.997 69.486C144.747 69.2367 144.623 68.9433 144.623 68.606V68.254C144.623 67.9167 144.747 67.6233 144.997 67.374C145.246 67.1247 145.539 67 145.877 67H147.109C147.446 67 147.739 67.1247 147.989 67.374C148.238 67.6233 148.363 67.9167 148.363 68.254V68.606C148.363 68.9433 148.238 69.2367 147.989 69.486C147.739 69.7353 147.446 69.86 147.109 69.86H145.877Z" fill="#9AA5B4"/>
<path d="M153.039 83.5C152.702 83.5 152.408 83.3753 152.159 83.126C151.924 82.8767 151.807 82.5833 151.807 82.246V73.314C151.807 72.9767 151.924 72.6833 152.159 72.434C152.408 72.1847 152.702 72.06 153.039 72.06H153.941C154.293 72.06 154.586 72.1847 154.821 72.434C155.07 72.6687 155.202 72.962 155.217 73.314L155.239 73.49C155.239 73.5047 155.246 73.512 155.261 73.512L155.305 73.468C156.258 72.3827 157.402 71.84 158.737 71.84C160.072 71.84 161.032 72.2213 161.619 72.984C162.206 73.732 162.499 75.0153 162.499 76.834V82.246C162.499 82.5833 162.374 82.8767 162.125 83.126C161.89 83.3753 161.604 83.5 161.267 83.5H160.299C159.962 83.5 159.668 83.3753 159.419 83.126C159.17 82.8767 159.045 82.5833 159.045 82.246V76.944C159.045 76.064 158.928 75.4627 158.693 75.14C158.458 74.8027 158.033 74.634 157.417 74.634C156.904 74.634 156.427 74.8467 155.987 75.272C155.562 75.6827 155.349 76.13 155.349 76.614V82.246C155.349 82.5833 155.224 82.8767 154.975 83.126C154.74 83.3753 154.454 83.5 154.117 83.5H153.039Z" fill="#9AA5B4"/>
<path d="M170.205 74.238C169.545 74.238 169.047 74.414 168.709 74.766C168.372 75.1033 168.159 75.69 168.071 76.526C168.071 76.6433 168.123 76.702 168.225 76.702H171.943C172.075 76.702 172.141 76.636 172.141 76.504C172.083 74.9933 171.437 74.238 170.205 74.238ZM170.755 83.72C168.761 83.72 167.221 83.214 166.135 82.202C165.065 81.19 164.529 79.716 164.529 77.78C164.529 75.8587 165.006 74.392 165.959 73.38C166.927 72.3533 168.321 71.84 170.139 71.84C173.63 71.84 175.405 73.7467 175.463 77.56C175.463 77.912 175.324 78.2127 175.045 78.462C174.781 78.6967 174.473 78.814 174.121 78.814H168.247C168.101 78.814 168.042 78.88 168.071 79.012C168.189 79.8187 168.497 80.398 168.995 80.75C169.509 81.0873 170.271 81.256 171.283 81.256C171.943 81.256 172.655 81.1607 173.417 80.97C173.725 80.8967 173.997 80.9553 174.231 81.146C174.481 81.3367 174.605 81.586 174.605 81.894V81.938C174.605 82.3047 174.488 82.642 174.253 82.95C174.033 83.2433 173.747 83.4193 173.395 83.478C172.545 83.6393 171.665 83.72 170.755 83.72Z" fill="#9AA5B4"/>
<path d="M178.949 83.5C178.612 83.5 178.319 83.3753 178.069 83.126C177.835 82.8767 177.717 82.5833 177.717 82.246V73.314C177.717 72.9767 177.835 72.6833 178.069 72.434C178.319 72.1847 178.612 72.06 178.949 72.06H180.027C180.365 72.06 180.651 72.1847 180.885 72.434C181.135 72.6833 181.259 72.9767 181.259 73.314V74.238C181.259 74.2527 181.267 74.26 181.281 74.26C181.311 74.26 181.325 74.2527 181.325 74.238C182.235 73.0207 183.503 72.3093 185.131 72.104C185.469 72.06 185.755 72.1627 185.989 72.412C186.239 72.6613 186.363 72.962 186.363 73.314V73.49C186.363 73.8273 186.239 74.1207 185.989 74.37C185.755 74.6193 185.461 74.7587 185.109 74.788C183.921 74.92 182.997 75.3307 182.337 76.02C181.692 76.6947 181.369 77.5747 181.369 78.66V82.246C181.369 82.5833 181.245 82.8767 180.995 83.126C180.761 83.3753 180.475 83.5 180.137 83.5H178.949Z" fill="#9AA5B4"/>
</svg>
