<svg width="266" height="150" viewBox="0 0 266 150" fill="none" xmlns="http://www.w3.org/2000/svg">
<rect width="266" height="150" fill="white"/>
<rect x="20" y="18" width="226" height="115" fill="#E2E8F0"/>
<path d="M235 71H135C133.895 71 133 71.8954 133 73C133 74.1046 133.895 75 135 75H235C236.105 75 237 74.1046 237 73C237 71.8954 236.105 71 235 71Z" fill="#1D2024"/>
<path d="M202.5 60H135.5C134.119 60 133 61.1193 133 62.5C133 63.8807 134.119 65 135.5 65H202.5C203.881 65 205 63.8807 205 62.5C205 61.1193 203.881 60 202.5 60Z" fill="#DC3545"/>
<path d="M228 79H135C133.895 79 133 79.8954 133 81C133 82.1046 133.895 83 135 83H228C229.105 83 230 82.1046 230 81C230 79.8954 229.105 79 228 79Z" fill="#1D2024"/>
<path d="M217.227 87H134.773C133.794 87 133 87.8954 133 89C133 90.1046 133.794 91 134.773 91H217.227C218.206 91 219 90.1046 219 89C219 87.8954 218.206 87 217.227 87Z" fill="#1D2024"/>
<path d="M62.778 92H89.222C89.7181 92 90.2094 91.9023 90.6678 91.7124C91.1261 91.5226 91.5426 91.2443 91.8934 90.8934C92.2443 90.5426 92.5226 90.1261 92.7124 89.6678C92.9023 89.2094 93 88.7181 93 88.222V61.778C93 60.776 92.602 59.8151 91.8934 59.1066C91.1849 58.398 90.224 58 89.222 58H62.778C61.776 58 60.8151 58.398 60.1066 59.1066C59.398 59.8151 59 60.776 59 61.778V88.222C59 88.7181 59.0977 89.2094 59.2876 89.6678C59.4774 90.1261 59.7557 90.5426 60.1066 90.8934C60.4574 91.2443 60.8739 91.5226 61.3322 91.7124C61.7906 91.9023 62.2819 92 62.778 92V92ZM62.778 92L83.556 71.222L93 80.667L62.778 92ZM72.222 68.389C72.222 69.1404 71.9235 69.8609 71.3922 70.3922C70.8609 70.9235 70.1404 71.222 69.389 71.222C68.6376 71.222 67.9171 70.9235 67.3858 70.3922C66.8545 69.8609 66.556 69.1404 66.556 68.389C66.556 67.6376 66.8545 66.9171 67.3858 66.3858C67.9171 65.8545 68.6376 65.556 69.389 65.556C70.1404 65.556 70.8609 65.8545 71.3922 66.3858C71.9235 66.9171 72.222 67.6376 72.222 68.389Z" stroke="#9AA5B4" stroke-width="3" stroke-linecap="round" stroke-linejoin="round"/>
</svg>
