<svg preserveAspectRatio="xMidYMid meet" viewBox="0 0 186 34" xmlns="http://www.w3.org/2000/svg" xmlns:xlink="http://www.w3.org/1999/xlink"><clipPath id="a"><path d="m0 0h186v34h-186z"/></clipPath><clipPath id="b"><path d="m0 0h186v34h-186z"/></clipPath><g fill="#ec008c"><path clip-path="url(#a)" d="m10.9 12.5c0-5.4-.7-7.4-2.2-7.4-1.2 0-2.5.8-2.5 11.9 0 10.8.6 11.9 2.5 11.9 2 0 2.4-3 2.5-7.8l5 .2c0 5.7-.8 12.6-7.8 12.6-6.3.1-8.4-6.1-8.4-16.9 0-12.5 3.8-17 8.5-17 6.9 0 7.7 6.3 7.7 12.3z"/><path clip-path="url(#a)" d="m22.3 20.4c0 7.1.8 8.5 2.2 8.5s2.2-1.4 2.2-8.5v-6.9c0-7.1-.8-8.5-2.2-8.5s-2.2 1.4-2.2 8.5zm2.2-20.4c5.3 0 8.7 4.1 8.7 17s-3.4 17-8.7 17-8.7-4.1-8.7-17 3.4-17 8.7-17"/><path clip-path="url(#a)" d="m38.2 23.9c0 1.8 0 5.1 2.6 5.1 2 0 2.7-1.8 2.7-3.2 0-5.8-10.8-7.2-10.8-16.9-.1-4.9 2.6-8.9 7.6-8.9 5.4 0 7.4 4.1 7.6 10h-5.3c0-1.8 0-4.9-2.4-4.9-1.4 0-2.2 1.2-2.2 3 0 5.6 10.8 7.4 10.8 17 0 5-2.8 9-8.2 9-6.4 0-7.7-5.6-7.7-10.1h5.3z"/><path d="m61.5.6-2.8 16.8h-.1l-2.6-16.8h-8v32.8h4.4v-24h.1l4 24h3.3l4.1-24h.1v24h5.3v-32.8z"/><path clip-path="url(#b)" d="m75.8 20.4c0 7.1.8 8.5 2.2 8.5s2.2-1.4 2.2-8.5v-6.9c0-7.1-.8-8.5-2.2-8.5s-2.2 1.4-2.2 8.5zm2.2-20.4c5.3 0 8.7 4.1 8.7 17s-3.4 17-8.7 17-8.7-4.1-8.7-17 3.4-17 8.7-17"/><path clip-path="url(#b)" d="m92.7 15.5h.5c2.4 0 3.8-1 3.8-4.9 0-4.7-1.8-4.9-3.8-4.9h-.5zm-6-14.9h6c6.7 0 10.3 2.7 10.3 9.8 0 5.9-2.3 9.8-7.9 9.8h-2.4v13.1h-6z"/><path clip-path="url(#b)" d="m109.1 20.4c0 7.1.8 8.5 2.2 8.5s2.2-1.4 2.2-8.5v-6.9c0-7.1-.8-8.5-2.2-8.5s-2.2 1.4-2.2 8.5zm2.2-20.4c5.3 0 8.7 4.1 8.7 17s-3.4 17-8.7 17-8.7-4.1-8.7-17 3.4-17 8.7-17"/><path d="m120 .6v32.8h13.6v-5.1h-7.7v-27.7z"/><path d="m133.8.6h6v32.7h-6z"/><path d="m140.1.6v5.1h5.1v27.7h6v-27.7h5.1v-5.1z"/><path d="m160.9 5.7 1.8 15.6h-3.7zm-3.7-5.1-4.6 32.7h5l.8-7.3h4.8l.9 7.3h5.7l-4-32.7h-8.6z"/><path d="m181.2.6v17.3h-.1l-5.4-17.3h-5.9v32.8h5.1v-19.8h.1l6.4 19.8h4.6v-32.8z"/></g></svg>