<svg width="163" height="43" viewBox="0 0 163 43" fill="none" xmlns="http://www.w3.org/2000/svg"><g clip-path="url(#clip0)" fill-rule="evenodd" clip-rule="evenodd"><path d="M28.3 15.4c.1 0 0 .1 0 0z" fill="url(#paint0_linear)"/><path d="M32.6 20.1c.3-2.2.6-4.6.6-6.9-.5-.1-1.1-.3-1.6-.4-.1.2-.3.5-.4.7-.2.2-.2.1-.3.3-.2.3-.1.2-.3.3-.2.1-.2.2-.3.3-.1.1-.3.1-.4.2-.2.1-.1.2-.4.3-.2 0-.3.1-.5.2s-.2.2-.5.2l-.4.2s-.1 0-.1.1l-.2.2c-.1.1-.2.1-.3.1-.2.1 0 .1-.7.4l-1.4.7c-.5.3-.4.4-.3.5.1.2.2.3.4.4.6.4 0 .2.9.6.1 0 .1.1.2.1.5.6 4.9 4.1 5.5 4.4.2.1.2.2.6.5.1.1.1.2.3.3.2.2.6.5.7.8.1.3.1.6 0 1s-.2.6-.7.9c-.4.2-.1.3-1.1.5-.8.1-2.2 0-3.1 0h-1c-1.3.1-1.8.1-3.1.1-1.5 0-1 .2-1.6 1.5-.1.3-.3.7-.6 1-.1.1-.1 0-.1.2-.3.4-.2.2-.4.4s0 .2-.3.3c0 .1-.2.3-.2.3 0 .2-.1.3-.2.4-.1.2-.2.1-.3.3-.1.2-.1.2-.2.3l-.5.6c-.2.3.1.1-.4.6-.2.2-.2.3-.3.5l-.1.1c-.1 0-.1.1-.1.2-.1.1-.4.3-.6.6l-.5.8c-.1.1-.1 0-.2.2l-.2.4c-.2.2-.2.4-.6.8-.2.2-.2.4-.2.6l-1 .6c1.1.9 3.8 2.8 4 2.8.2 0 2.8-1.8 3.1-2l2.2-1.7c.6-.5 1.5-1.4 2-1.9l1.2-1.4c.4-.5.7-1 1.1-1.5 1-1.6 1.7-3.2 2.1-4.9h1.4c-1.1 4.4-2.8 7-6.8 10.7-.1.1-.3.2-.4.3-.3.2-.5.4-.8.6-1.1.9-2.1 1.6-3.2 2.3-.2.2-1.5 1-1.7 1.1l-.9-.6-2.5-1.7c-1.1-.8-3.6-2.8-4.5-3.9l-1.3-1.5c-3-3.7-3.7-7.1-4.6-11.9l1.3-.2c.1.7.2 1.4.4 2l.8-.2c.3-.1 1.4-.2 2-.5.2-.1.8-.2 1.1-.5.4-.2.7-.4 1-.6 1.3-.9 1-1.1 1.6-1.6.3-.2.8 0 1.4 0 0-.8-.2-.3-.8-.8-.5-.5-.5-.3-.9-1-.2-.3-.2-.1-.4-.8 0-.1 0-.2-.1-.3-.1-.3-.2-.1-.2-1 0-.6.1-.5.6-.9.3-.2.8-.2 1.2 0 .3.2.8.2 1.2.4.5.2.7.4 1.2.1.1-.6-.3-.8-.5-1-.6-.5-.2-.1-.7-.4-.1-.1-.2-.1-.4-.2s-.5-.2-.7-.3l-.7-.3c-.2-.1-.1-.1-.3-.2-.2-.1-.2-.1-.4-.1-.2-.1-.4-.2-.7-.3-.3-.1-.5-.2-.7-.3-.1-.1-2.1-1.2-2.2-1.3-.2-.2-.1-.1-.3-.2l-.1-.1c-.1 0-.1 0-.2.1-.6.2-1.1.3-1.7.5-.5.1-1.2.3-1.6.5.1 2.2.4 5 .8 7.9H6.1c-.5-2.9-.8-5.9-.8-9 1.2-.3 2.5-.7 3.7-1h.1c-.3-.3-.6-.7-.7-1.1h-.7l-.5-.8c-.1 0-1.7-2.2-2-2.6l-.6-.8C3.4 4.7 1.3 1.1 0 .3V0l1 .2 1.2.8.1.1c.1.1.1.1.2.1.5.3.3.3.7.5.5.2 1.2.9 1.6 1.3.1.2.2.2.4.4l.6.6c.2.1.2.1.4.3l1.5 1.6c.3.3.8.9 1.4.5.7-.4.3-.2.7-.6.1-.1.2-.1.3-.4.1-.2.2-.2.3-.4.1-.2.1-.3.2-.5l.7-1.2c.2-.3.2-.4.7-.4.3.7 0 .5-.1 1-.3 1.3-.3.9-.5 1.6-.2.7-.2.5-.4 1 0 .1 0 .2-.1.4s-.2.3-.2.5c-.1.2-.1.3-.1.5-.4.9-.6 1 .1 2 .1.2.2.2.3.3.2.2.1.1.4.3.4.2 0 .2.8.6.2.1.2.2.4.2.9.3 1-.2 1-.9 0-1.6 0-2.2.2-3.9l.1-.5c0-.2.1-.4.1-.6 0-.4.1-.8.3-1.1.2 0 .4.1.5.2.1.2.2 1.8.2 2 0 1.3.4 1.9.4 2.6 0 .4.3 1.1.4 1.5.2.8.3.7.4.9.1.2 0 .3.2.5.1.2.2.2.3.4.1.1.1.3.2.4.1.3.4.4.7.7.5.5 1.2.8 2 .5h.2c.5-.3.7-.2 1.2-.4l.4-.2 1.8-.8c.1-.1.3-.2.3-.3.4-.5.5-.4.9-1.1.1-.2.2-.2.4-.9 0-.3.2-.4.3-1l.3-.9c.2.1.2.2.2.4s.1.3.1.5c0 1 .1 3.3-.7 4-.3.2-.1.2-.5.6l-.3.3c-.2.1-.2.1-.3.3-.2.2-.2.1-.4.2-.1.1-.2.2-.3.2 0 .2 0 .3.1.5.4 0 .5-.1.8-.1.2 0 .7-.1.9-.1.2-.1.5-.1.7-.2.5-.3.5-.1.8-.3.2-.1.5-.2.7-.3.4-.1 1.1-.4 1.4-.6l1.8-1.2c.2-.2.1-.3.4-.5.3-.2.3-.4.4-.6.1-.1.2-.2.2-.3l.6-1.4c.1-.1.1-.1.2-.3.1-.2.2-.5.3-.7 0 .1 0-.1.1.3v1c0 .5 0 .8-.1 1.2-.1.2-.2.6-.3.9l.3-.5 2.3.6c0 3.1-.3 6-.8 8.9l-1.4-1.1z" fill="url(#paint1_linear)"/></g><g clip-path="url(#clip1)"><path d="M43 26.4c0-7.2 10.7-7.2 10.7 0S43 33.6 43 26.4zm8 0c0-3.8-5.2-3.8-5.2 0-.1 3.8 5.2 3.8 5.2 0zm9.4-5.3c2.2 0 4.5 1.2 4.9 4h-2.6c-.4-1.1-1.2-1.5-2.3-1.5-1.6 0-2.6 1.2-2.6 2.9 0 1.5 1 2.9 2.6 2.9 1.1 0 2-.6 2.3-1.7h2.6c-.4 2.9-2.7 4.1-4.9 4.1-2.7 0-5.3-1.8-5.3-5.3 0-3.7 2.7-5.4 5.3-5.4zm6 2.5v-2.4h7.7v2.4h-2.5v8H69v-8h-2.6zm15.9 0h-3.9V25H82v2.4h-3.5v1.8h4v2.4h-6.6V21.2h6.5c-.1.8-.1 1.6-.1 2.4zm1.8 2.8c0-7.2 10.7-7.2 10.7 0s-10.7 7.2-10.7 0zm7.9 0c0-3.8-5.2-3.8-5.2 0s5.2 3.8 5.2 0zm9 4.4c-2.7-.1-4.9-1.1-4.9-4.4 0-3.2 2.2-4.3 4.9-4.4v-.9h2.6v.9c2.7.1 4.9 1.1 4.9 4.4 0 3.2-2.2 4.3-4.9 4.4v.9H101v-.9zm.1-2.5v-3.8c-1.1 0-2.2.4-2.2 1.9s1.1 1.9 2.2 1.9zm2.5-3.8v3.9c1.1-.1 2.2-.4 2.2-1.9s-1.1-2-2.2-2zm6.3 1.9c0-7.2 10.7-7.2 10.7 0s-10.7 7.2-10.7 0zm7.9 0c0-3.8-5.2-3.8-5.2 0s5.2 3.8 5.2 0zm4.8 5.2V21.2h4.6c5 0 5 7.8 0 7.8h-1.9v2.7c-1-.1-1.9-.1-2.7-.1zm4.5-8h-1.9v3h1.9c1.5-.1 1.6-3 0-3zm4.8 0v-2.4h7.7v2.4h-2.5v8h-2.6v-8h-2.6zm10.3 8h-1V21.2h2.7v5.1l5.3-5.1h1v10.5h-2.8v-5.2l-5.2 5.1zm15.4-10.5c2.2 0 4.5 1.2 4.9 4h-2.6c-.4-1.1-1.2-1.5-2.3-1.5-1.6 0-2.6 1.2-2.6 2.9 0 1.5 1 2.9 2.6 2.9 1.1 0 2-.6 2.3-1.7h2.6c-.4 2.9-2.7 4.1-4.9 4.1-2.7 0-5.3-1.8-5.3-5.3 0-3.7 2.7-5.4 5.3-5.4z" fill="url(#paint2_linear)"/></g><defs><linearGradient id="paint0_linear" x1="28.322" y1="15.4" x2="28.322" y2="15.444" gradientUnits="userSpaceOnUse"><stop stop-color="#B89D53"/><stop offset="1" stop-color="#B49950" stop-opacity="0"/></linearGradient><linearGradient id="paint1_linear" x1=".025" y1="21.18" x2="34.82" y2="21.18" gradientUnits="userSpaceOnUse"><stop stop-color="#805711"/><stop offset=".12" stop-color="#947025"/><stop offset=".28" stop-color="#CCB260"/><stop offset=".4" stop-color="#C6A864"/><stop offset=".5" stop-color="#FEF3B3"/><stop offset=".69" stop-color="#CCB260"/><stop offset=".79" stop-color="#9E8241"/><stop offset=".87" stop-color="#A37B26"/><stop offset=".91" stop-color="#C09838"/><stop offset="1" stop-color="#866400"/></linearGradient><linearGradient id="paint2_linear" x1="34" y1="26.421" x2="162.567" y2="26.421" gradientUnits="userSpaceOnUse"><stop stop-color="#805711"/><stop offset=".12" stop-color="#947025"/><stop offset=".28" stop-color="#CCB260"/><stop offset=".4" stop-color="#C6A864"/><stop offset=".5" stop-color="#FEF3B3"/><stop offset=".69" stop-color="#CCB260"/><stop offset=".79" stop-color="#9E8241"/><stop offset=".87" stop-color="#A37B26"/><stop offset=".91" stop-color="#C09838"/><stop offset="1" stop-color="#866400"/></linearGradient><clipPath id="clip0"><path fill="#fff" d="M0 0h34.6v42.3H0z"/></clipPath><clipPath id="clip1"><path fill="#fff" transform="translate(43 21)" d="M0 0h119.6v10.8H0z"/></clipPath></defs></svg>