<svg width="266" height="150" viewBox="0 0 266 150" fill="none" xmlns="http://www.w3.org/2000/svg">
<path d="M0 0H266V150H0V0Z" fill="white"/>
<rect x="70" y="13" width="125" height="125" rx="5" fill="#CBD5E0"/>
<path d="M146.213 58H118.944C117.889 58 117 58.875 117 59.9141V90.9766C117 92.125 117.889 93 118.944 93H146.047C147.102 93 147.991 92.125 147.991 91.0859V59.9141C148.102 58.875 147.213 58 146.213 58ZM145.158 60.8984V76.8125C144.714 77.0859 144.436 77.25 144.103 77.5234C143.214 78.125 142.492 78.8359 141.715 79.4375C139.327 81.4609 137.716 82.7734 135.494 81.8984C135.05 81.7344 134.606 81.2969 133.995 80.8594L133.828 80.6953C132.495 79.6563 130.885 78.3438 129.107 77.7969C125.831 76.7578 123.054 78.5078 120.499 80.1484C120.332 80.1484 120.221 80.3125 120.221 80.3125V60.8984H145.158ZM119.999 90.1016V83.9766C120.61 83.7031 121.332 83.2656 121.943 82.8281C124.164 81.5156 126.108 80.2031 128.163 80.8047C129.496 81.2422 130.663 82.1172 131.884 83.1562L132.051 83.3203C132.662 83.9219 133.384 84.4687 134.439 84.7969C135.328 85.0703 136.05 85.2344 136.827 85.2344C139.66 85.2344 141.881 83.3203 143.659 81.7344C144.269 81.2969 144.714 80.8594 145.158 80.4219V90.2109H119.999V90.1016Z" fill="#9AA5B4"/>
<path d="M136.994 75.5C139.826 75.5 142.159 73.1484 142.159 70.4141C142.159 67.6797 139.771 65.3281 136.994 65.3281C134.217 65.3281 131.829 67.6797 131.829 70.4141C131.829 73.1484 134.217 75.5 136.994 75.5ZM136.994 68.2266C138.16 68.2266 139.216 69.2656 139.216 70.4141C139.216 71.5625 138.16 72.6016 136.994 72.6016C135.828 72.6016 134.772 71.5625 134.772 70.4141C134.772 69.2656 135.828 68.2266 136.994 68.2266Z" fill="#9AA5B4"/>
</svg>
