<svg width="266" height="150" viewBox="0 0 266 150" fill="none" xmlns="http://www.w3.org/2000/svg">
<path d="M0 0H266V150H0V0Z" fill="white"/>
<rect x="70" y="13" width="125" height="125" rx="5" fill="#CBD5E0"/>
<path d="M150.248 66.0625C149.844 64.4375 148.572 63.2187 146.953 62.7545C144.062 62 132.5 62 132.5 62C132.5 62 120.938 62 118.047 62.7545C116.428 63.1607 115.214 64.4375 114.752 66.0625C114 68.9643 114 75 114 75C114 75 114 81.0357 114.752 83.9375C115.156 85.5625 116.428 86.7812 118.047 87.2455C120.938 88 132.5 88 132.5 88C132.5 88 144.062 88 146.953 87.2455C148.572 86.8393 149.786 85.5625 150.248 83.9375C151 81.0357 151 75 151 75C151 75 151 68.9643 150.248 66.0625ZM128.8 80.5714V69.4286L138.397 75L128.8 80.5714Z" fill="#9AA5B4"/>
</svg>
