<?xml version="1.0" encoding="UTF-8" standalone="no"?>
<svg width="12px" height="12px" viewBox="0 0 12 12" version="1.1" xmlns="http://www.w3.org/2000/svg" xmlns:xlink="http://www.w3.org/1999/xlink" xmlns:sketch="http://www.bohemiancoding.com/sketch/ns">
    <!-- Generator: Sketch 3.5.1 (25234) - http://www.bohemiancoding.com/sketch -->
    <title>icon</title>
    <desc>Created with Sketch.</desc>
    <defs></defs>
    <g id="Page-1" stroke="none" stroke-width="1" fill="none" fill-rule="evenodd" sketch:type="MSPage">
        <g id="новость-телефон" sketch:type="MSArtboardGroup" transform="translate(-64.000000, -163.000000)" fill="#B68A58">
            <g id="Rectangle-10-+-Imported-Layers-Copy-2-+-Надежный-источник-+-РБК-+-flag--+-09:46,-27-ноября-201-+-time" sketch:type="MSLayerGroup" transform="translate(12.000000, 162.000000)">
                <g id="09:46,-27-ноября-201-+-time" transform="translate(52.000000, 0.000000)" sketch:type="MSShapeGroup">
                    <g id="time" transform="translate(0.000000, 1.000000)">
                        <g id="icon">
                            <path d="M5.75,2 C3.406,2 1.5,3.906 1.5,6.25 C1.5,8.594 3.406,10.5 5.75,10.5 C8.094,10.5 10,8.594 10,6.25 C10,3.906 8.094,2 5.75,2 M5.75,12 C2.579,12 0,9.421 0,6.25 C0,3.079 2.579,0.5 5.75,0.5 C8.921,0.5 11.5,3.079 11.5,6.25 C11.5,9.421 8.921,12 5.75,12" id="Fill-1"></path>
                            <path d="M7.75,7 L5.75,7 C5.336,7 5,6.664 5,6.25 L5,4.25 C5,3.836 5.336,3.5 5.75,3.5 C6.164,3.5 6.5,3.836 6.5,4.25 L6.5,5.5 L7.75,5.5 C8.164,5.5 8.5,5.836 8.5,6.25 C8.5,6.664 8.164,7 7.75,7" id="Fill-3"></path>
                        </g>
                    </g>
                </g>
            </g>
        </g>
    </g>
</svg>