<?xml version="1.0" encoding="UTF-8" standalone="no"?>
<svg width="12px" height="10px" viewBox="0 0 12 10" version="1.1" xmlns="http://www.w3.org/2000/svg" xmlns:xlink="http://www.w3.org/1999/xlink" xmlns:sketch="http://www.bohemiancoding.com/sketch/ns">
    <!-- Generator: Sketch 3.5.1 (25234) - http://www.bohemiancoding.com/sketch -->
    <title>icon</title>
    <desc>Created with Sketch.</desc>
    <defs></defs>
    <g id="Page-1" stroke="none" stroke-width="1" fill="none" fill-rule="evenodd" sketch:type="MSPage">
        <g id="новость-телефон" sketch:type="MSArtboardGroup" transform="translate(-12.000000, -164.000000)" fill="#B68A58">
            <g id="Rectangle-10-+-Imported-Layers-Copy-2-+-Надежный-источник-+-РБК-+-flag--+-09:46,-27-ноября-201-+-time" sketch:type="MSLayerGroup" transform="translate(12.000000, 162.000000)">
                <g id="РБК-+-flag-" sketch:type="MSShapeGroup">
                    <g id="flag-" transform="translate(0.000000, 1.000000)">
                        <path d="M1.5037594,9.57106577 L9.67218045,9.57106577 L7.03057644,6.40739016 C6.81203008,6.14549649 6.81403509,5.77503598 7.03458647,5.51504698 L9.65614035,2.42851096 L1.5037594,2.42851096 L1.5037594,9.57106577 Z M11.2481203,10.9995767 C11.2431078,10.9995767 11.2350877,11.0005291 11.2280702,10.9995767 L0.751879699,10.9995767 C0.336842105,10.9995767 0,10.6795903 0,10.2853213 L0,1.71425548 C0,1.31998646 0.336842105,1 0.751879699,1 L11.2280702,1 C11.5177945,1 11.7814536,1.15808855 11.9067669,1.40664945 C12.0310777,1.65425802 11.9949875,1.94853128 11.8135338,2.16280792 L8.58245614,5.96740879 L11.7303258,9.73677305 C11.8947368,9.86819606 12,10.0653306 12,10.2853213 C12,10.6795903 11.6641604,10.9995767 11.2481203,10.9995767 L11.2481203,10.9995767 Z" id="icon"></path>
                    </g>
                </g>
            </g>
        </g>
    </g>
</svg>