<svg xmlns="http://www.w3.org/2000/svg" fill="none" viewBox="0 0 300 300">
  <defs/>
  <path fill="#161A1E" d="M43.2 85.8c3.6451 0 6.6-2.9549 6.6-6.6s-2.9549-6.6-6.6-6.6-6.6 2.9549-6.6 6.6 2.9549 6.6 6.6 6.6zM64.5 85.8c3.6451 0 6.6-2.9549 6.6-6.6s-2.9549-6.6-6.6-6.6-6.6 2.9549-6.6 6.6 2.9549 6.6 6.6 6.6zM85.5 85.8c3.6451 0 6.6-2.9549 6.6-6.6s-2.9549-6.6-6.6-6.6-6.6 2.9549-6.6 6.6 2.9549 6.6 6.6 6.6zM226.2 181.2H72.9c-2.4 0-4.5-2.1-4.5-4.5s2.1-4.5 4.5-4.5h153.3c2.4 0 4.5 2.1 4.5 4.5s-2.1 4.5-4.5 4.5zM200.7 202.2h-102c-2.4 0-4.5-2.1-4.5-4.5s2.1-4.5 4.5-4.5h102c2.4 0 4.5 2.1 4.5 4.5s-2.1 4.5-4.5 4.5z"/>
  <path fill="#161A1E" d="M258.9 246.3H40.2c-13.5 0-24.6-11.1-24.6-24.6V78.9c0-13.5 11.1-24.6 24.6-24.6h218.7c13.5 0 24.6 11.1 24.6 24.6v142.8c0 13.8-11.1 24.6-24.6 24.6zM40.2 63.6c-8.4 0-15.6 6.9-15.6 15.6V222c0 8.4 6.9 15.6 15.6 15.6h218.7c8.4 0 15.6-6.9 15.6-15.6V79.2c0-8.4-6.9-15.6-15.6-15.6H40.2z"/>
  <path fill="#DC3545" d="M149.7 161.4c-14.7 0-26.7-12-26.7-26.7s12-26.7 26.7-26.7 26.7 12 26.7 26.7-12 26.7-26.7 26.7zm0-44.4c-9.9 0-17.7 8.1-17.7 17.7 0 9.9 8.1 17.7 17.7 17.7 9.9 0 17.7-8.1 17.7-17.7s-8.1-17.7-17.7-17.7z"/>
</svg>