<svg width="266" height="150" viewBox="0 0 266 150" fill="none" xmlns="http://www.w3.org/2000/svg">
<path d="M0 0H266V150H0V0Z" fill="white"/>
<path d="M109.793 71C109.394 71 109.048 70.8527 108.753 70.558C108.458 70.2633 108.311 69.9167 108.311 69.518V53.502C108.311 53.1033 108.458 52.7567 108.753 52.462C109.048 52.1673 109.394 52.02 109.793 52.02H111.405C111.804 52.02 112.142 52.1673 112.419 52.462C112.714 52.7567 112.861 53.1033 112.861 53.502V67.126C112.861 67.2647 112.939 67.334 113.095 67.334H119.413C119.812 67.334 120.158 67.4813 120.453 67.776C120.748 68.0707 120.895 68.4173 120.895 68.816V69.518C120.895 69.9167 120.748 70.2633 120.453 70.558C120.158 70.8527 119.812 71 119.413 71H109.793ZM126.077 71C125.679 71 125.332 70.8527 125.037 70.558C124.743 70.2633 124.595 69.9167 124.595 69.518V58.962C124.595 58.5633 124.743 58.2167 125.037 57.922C125.332 57.6273 125.679 57.48 126.077 57.48H127.533C127.932 57.48 128.279 57.6273 128.573 57.922C128.868 58.2167 129.015 58.5633 129.015 58.962V69.518C129.015 69.9167 128.868 70.2633 128.573 70.558C128.279 70.8527 127.932 71 127.533 71H126.077ZM126.077 54.88C125.679 54.88 125.332 54.7327 125.037 54.438C124.743 54.1433 124.595 53.7967 124.595 53.398V52.982C124.595 52.5833 124.743 52.2367 125.037 51.942C125.332 51.6473 125.679 51.5 126.077 51.5H127.533C127.932 51.5 128.279 51.6473 128.573 51.942C128.868 52.2367 129.015 52.5833 129.015 52.982V53.398C129.015 53.7967 128.868 54.1433 128.573 54.438C128.279 54.7327 127.932 54.88 127.533 54.88H126.077ZM137.922 65.8C136.05 65.4533 134.707 64.916 133.892 64.188C133.095 63.46 132.696 62.498 132.696 61.302C132.696 60.0193 133.173 59.0227 134.126 58.312C135.097 57.584 136.553 57.22 138.494 57.22C139.638 57.22 140.808 57.3153 142.004 57.506C142.42 57.5753 142.758 57.7747 143.018 58.104C143.295 58.4333 143.434 58.8147 143.434 59.248V59.378C143.434 59.742 143.287 60.0367 142.992 60.262C142.715 60.4873 142.394 60.5653 142.03 60.496C140.903 60.2707 139.863 60.158 138.91 60.158C138.199 60.158 137.697 60.2447 137.402 60.418C137.125 60.5913 136.986 60.8513 136.986 61.198C136.986 61.8567 137.506 62.29 138.546 62.498C140.522 62.8273 141.9 63.3473 142.68 64.058C143.477 64.7687 143.876 65.8 143.876 67.152C143.876 68.452 143.391 69.466 142.42 70.194C141.449 70.9047 140.037 71.26 138.182 71.26C136.83 71.26 135.547 71.13 134.334 70.87C133.918 70.7833 133.571 70.5667 133.294 70.22C133.034 69.856 132.904 69.4487 132.904 68.998V68.79C132.904 68.426 133.051 68.1487 133.346 67.958C133.641 67.75 133.97 67.6893 134.334 67.776C135.461 68.0707 136.57 68.218 137.662 68.218C138.945 68.218 139.586 67.8453 139.586 67.1C139.586 66.7533 139.465 66.4847 139.222 66.294C138.997 66.1033 138.563 65.9387 137.922 65.8ZM147.248 60.938C146.85 60.938 146.503 60.7993 146.208 60.522C145.914 60.2273 145.766 59.8807 145.766 59.482C145.766 59.0833 145.914 58.7367 146.208 58.442C146.503 58.1473 146.85 58 147.248 58H148.288C148.427 58 148.496 57.922 148.496 57.766V54.542C148.496 54.1433 148.644 53.7967 148.938 53.502C149.233 53.2073 149.58 53.06 149.978 53.06H151.226C151.625 53.06 151.972 53.2073 152.266 53.502C152.561 53.7967 152.708 54.1433 152.708 54.542V57.766C152.708 57.922 152.786 58 152.942 58H155.49C155.889 58 156.227 58.1473 156.504 58.442C156.799 58.7367 156.946 59.0833 156.946 59.482C156.946 59.8807 156.799 60.2273 156.504 60.522C156.227 60.7993 155.889 60.938 155.49 60.938H152.942C152.786 60.938 152.708 61.016 152.708 61.172V65.618C152.708 66.71 152.804 67.4033 152.994 67.698C153.202 67.9927 153.653 68.14 154.346 68.14C154.71 68.14 154.996 68.1227 155.204 68.088C155.586 68.036 155.924 68.1227 156.218 68.348C156.513 68.5733 156.66 68.868 156.66 69.232V69.44C156.66 69.8733 156.522 70.2547 156.244 70.584C155.967 70.9133 155.612 71.104 155.178 71.156C154.641 71.2253 154.017 71.26 153.306 71.26C151.538 71.26 150.29 70.8873 149.562 70.142C148.852 69.3793 148.496 68.0187 148.496 66.06V61.172C148.496 61.016 148.427 60.938 148.288 60.938H147.248Z" fill="#9AA5B4"/>
<path d="M178.227 85H95.7732C94.7939 85 94 85.8954 94 87C94 88.1046 94.7939 89 95.7732 89H178.227C179.206 89 180 88.1046 180 87C180 85.8954 179.206 85 178.227 85Z" fill="#A0AEC0"/>
<path d="M178.227 99H95.7732C94.7939 99 94 99.8954 94 101C94 102.105 94.7939 103 95.7732 103H178.227C179.206 103 180 102.105 180 101C180 99.8954 179.206 99 178.227 99Z" fill="#A0AEC0"/>
<path d="M178.227 113H95.7732C94.7939 113 94 113.895 94 115C94 116.105 94.7939 117 95.7732 117H178.227C179.206 117 180 116.105 180 115C180 113.895 179.206 113 178.227 113Z" fill="#A0AEC0"/>
<path d="M85.54 86.516C85.428 86.604 85.308 86.616 85.18 86.552C85.06 86.488 85 86.384 85 86.24V85.364C85 84.908 85.184 84.548 85.552 84.284L86.764 83.396C87.124 83.132 87.536 83 88 83H88.756C88.94 83 89.1 83.068 89.236 83.204C89.372 83.34 89.44 83.5 89.44 83.684V91.076C89.44 91.26 89.372 91.42 89.236 91.556C89.1 91.692 88.94 91.76 88.756 91.76H88C87.816 91.76 87.656 91.692 87.52 91.556C87.384 91.42 87.316 91.26 87.316 91.076V85.244H87.304H87.292L85.54 86.516Z" fill="#DC3545"/>
<path d="M83.684 105.64C83.5 105.64 83.34 105.572 83.204 105.436C83.068 105.3 83 105.14 83 104.956V104.68C83 104.232 83.18 103.868 83.54 103.588C84.884 102.532 85.772 101.728 86.204 101.176C86.644 100.624 86.864 100.084 86.864 99.556C86.864 98.82 86.456 98.452 85.64 98.452C85.144 98.452 84.536 98.588 83.816 98.86C83.664 98.916 83.52 98.9 83.384 98.812C83.248 98.724 83.18 98.6 83.18 98.44V97.936C83.18 97.728 83.24 97.544 83.36 97.384C83.48 97.216 83.64 97.104 83.84 97.048C84.568 96.856 85.268 96.76 85.94 96.76C86.908 96.76 87.652 96.992 88.172 97.456C88.7 97.912 88.964 98.548 88.964 99.364C88.964 100.068 88.74 100.74 88.292 101.38C87.852 102.012 86.988 102.872 85.7 103.96C85.692 103.968 85.688 103.976 85.688 103.984C85.688 103.992 85.692 103.996 85.7 103.996H88.328C88.512 103.996 88.668 104.064 88.796 104.2C88.932 104.336 89 104.496 89 104.68V104.956C89 105.14 88.932 105.3 88.796 105.436C88.668 105.572 88.512 105.64 88.328 105.64H83.684Z" fill="#DC3545"/>
<path d="M83.684 112.404C83.5 112.404 83.34 112.336 83.204 112.2C83.068 112.064 83 111.904 83 111.72V111.444C83 111.26 83.068 111.1 83.204 110.964C83.34 110.828 83.5 110.76 83.684 110.76H88.16C88.344 110.76 88.504 110.828 88.64 110.964C88.776 111.1 88.844 111.26 88.844 111.444V111.72C88.844 112.176 88.668 112.548 88.316 112.836L86.504 114.336V114.348C86.504 114.356 86.508 114.36 86.516 114.36H86.66C87.356 114.36 87.912 114.576 88.328 115.008C88.752 115.44 88.964 116.024 88.964 116.76C88.964 117.688 88.68 118.4 88.112 118.896C87.544 119.392 86.728 119.64 85.664 119.64C85.024 119.64 84.376 119.564 83.72 119.412C83.528 119.364 83.368 119.26 83.24 119.1C83.12 118.932 83.06 118.744 83.06 118.536V118.128C83.06 117.968 83.124 117.844 83.252 117.756C83.388 117.66 83.536 117.636 83.696 117.684C84.384 117.908 84.984 118.02 85.496 118.02C85.96 118.02 86.32 117.912 86.576 117.696C86.832 117.48 86.96 117.18 86.96 116.796C86.96 116.404 86.812 116.128 86.516 115.968C86.22 115.808 85.668 115.724 84.86 115.716C84.676 115.716 84.516 115.652 84.38 115.524C84.244 115.388 84.176 115.228 84.176 115.044V115.02C84.176 114.572 84.348 114.2 84.692 113.904L86.396 112.428V112.416C86.396 112.408 86.392 112.404 86.384 112.404H83.684Z" fill="#DC3545"/>
</svg>
