<svg width="266" height="150" viewBox="0 0 266 150" fill="none" xmlns="http://www.w3.org/2000/svg">
<path d="M0 0H266V150H0V0Z" fill="white"/>
<path d="M42.86 79.346C42.444 79.19 42.106 78.93 41.846 78.566C41.586 78.202 41.456 77.8033 41.456 77.37V75.55C41.456 75.1167 41.586 74.718 41.846 74.354C42.106 73.99 42.444 73.73 42.86 73.574L54.3 69.336C54.6293 69.2147 54.9413 69.258 55.236 69.466C55.5307 69.6567 55.678 69.934 55.678 70.298V70.948C55.678 71.3813 55.548 71.78 55.288 72.144C55.028 72.508 54.69 72.7593 54.274 72.898L43.952 76.434C43.9347 76.434 43.926 76.4427 43.926 76.46C43.926 76.4773 43.9347 76.486 43.952 76.486L54.274 80.022C54.69 80.1607 55.028 80.412 55.288 80.776C55.548 81.14 55.678 81.5387 55.678 81.972V82.622C55.678 82.986 55.5307 83.272 55.236 83.48C54.9413 83.6707 54.6293 83.7053 54.3 83.584L42.86 79.346ZM61.3838 84C60.9851 84 60.6384 83.8527 60.3438 83.558C60.0491 83.2633 59.9018 82.9167 59.9018 82.518V66.502C59.9018 66.1033 60.0491 65.7567 60.3438 65.462C60.6384 65.1673 60.9851 65.02 61.3838 65.02H62.8658C63.2644 65.02 63.6024 65.1673 63.8798 65.462C64.1744 65.7567 64.3218 66.1033 64.3218 66.502V72.222C64.3218 72.378 64.3998 72.456 64.5558 72.456H69.9118C70.0678 72.456 70.1458 72.378 70.1458 72.222V66.502C70.1458 66.1033 70.2844 65.7567 70.5618 65.462C70.8564 65.1673 71.2031 65.02 71.6018 65.02H73.0838C73.4824 65.02 73.8291 65.1673 74.1238 65.462C74.4184 65.7567 74.5658 66.1033 74.5658 66.502V82.518C74.5658 82.9167 74.4184 83.2633 74.1238 83.558C73.8291 83.8527 73.4824 84 73.0838 84H71.6018C71.2031 84 70.8564 83.8527 70.5618 83.558C70.2844 83.2633 70.1458 82.9167 70.1458 82.518V76.018C70.1458 75.8793 70.0678 75.81 69.9118 75.81H64.5558C64.3998 75.81 64.3218 75.8793 64.3218 76.018V82.518C64.3218 82.9167 64.1744 83.2633 63.8798 83.558C63.6024 83.8527 63.2644 84 62.8658 84H61.3838ZM84.0511 73.054C83.2711 73.054 82.6818 73.262 82.2831 73.678C81.8844 74.0767 81.6331 74.77 81.5291 75.758C81.5291 75.8967 81.5898 75.966 81.7111 75.966H86.1051C86.2611 75.966 86.3391 75.888 86.3391 75.732C86.2698 73.9467 85.5071 73.054 84.0511 73.054ZM84.7011 84.26C82.3438 84.26 80.5238 83.662 79.2411 82.466C77.9758 81.27 77.3431 79.528 77.3431 77.24C77.3431 74.9693 77.9064 73.236 79.0331 72.04C80.1771 70.8267 81.8238 70.22 83.9731 70.22C88.0984 70.22 90.1958 72.4733 90.2651 76.98C90.2651 77.396 90.1004 77.7513 89.7711 78.046C89.4591 78.3233 89.0951 78.462 88.6791 78.462H81.7371C81.5638 78.462 81.4944 78.54 81.5291 78.696C81.6678 79.6493 82.0318 80.334 82.6211 80.75C83.2278 81.1487 84.1291 81.348 85.3251 81.348C86.1051 81.348 86.9458 81.2353 87.8471 81.01C88.2111 80.9233 88.5318 80.9927 88.8091 81.218C89.1038 81.4433 89.2511 81.738 89.2511 82.102V82.154C89.2511 82.5873 89.1124 82.986 88.8351 83.35C88.5751 83.6967 88.2371 83.9047 87.8211 83.974C86.8158 84.1647 85.7758 84.26 84.7011 84.26ZM99.2989 77.812C97.1842 77.812 96.1269 78.462 96.1269 79.762C96.1269 80.23 96.2656 80.6027 96.5429 80.88C96.8202 81.14 97.1929 81.27 97.6609 81.27C98.4929 81.27 99.1689 81.01 99.6889 80.49C100.209 79.9527 100.469 79.242 100.469 78.358V78.046C100.469 77.89 100.391 77.812 100.235 77.812H99.2989ZM96.3869 84.26C95.1909 84.26 94.2029 83.8787 93.4229 83.116C92.6602 82.336 92.2789 81.3307 92.2789 80.1C92.2789 76.9453 94.6189 75.368 99.2989 75.368H100.235C100.391 75.368 100.469 75.2987 100.469 75.16V75.03C100.469 74.3713 100.296 73.8947 99.9489 73.6C99.6196 73.3053 99.0562 73.158 98.2589 73.158C97.2016 73.158 95.9362 73.3227 94.4629 73.652C94.0989 73.7213 93.7696 73.6433 93.4749 73.418C93.1976 73.1927 93.0589 72.898 93.0589 72.534V72.482C93.0589 72.0487 93.1889 71.6587 93.4489 71.312C93.7262 70.948 94.0729 70.7313 94.4889 70.662C96.0142 70.3673 97.3316 70.22 98.4409 70.22C100.712 70.22 102.315 70.6273 103.251 71.442C104.204 72.2567 104.681 73.6087 104.681 75.498V82.518C104.681 82.9167 104.534 83.2633 104.239 83.558C103.944 83.8527 103.598 84 103.199 84H102.237C101.821 84 101.466 83.8613 101.171 83.584C100.876 83.2893 100.72 82.934 100.703 82.518V82.232C100.703 82.2147 100.694 82.206 100.677 82.206C100.642 82.206 100.625 82.2147 100.625 82.232C99.5329 83.584 98.1202 84.26 96.3869 84.26ZM113.914 73.34C112.18 73.34 111.314 74.64 111.314 77.24C111.314 78.5573 111.548 79.5367 112.016 80.178C112.484 80.8193 113.116 81.14 113.914 81.14C114.607 81.14 115.214 80.906 115.734 80.438C116.254 79.97 116.514 79.4413 116.514 78.852V75.628C116.514 75.0387 116.254 74.51 115.734 74.042C115.214 73.574 114.607 73.34 113.914 73.34ZM112.484 84.26C110.941 84.26 109.676 83.6447 108.688 82.414C107.7 81.166 107.206 79.4413 107.206 77.24C107.206 74.9867 107.682 73.2533 108.636 72.04C109.589 70.8267 110.872 70.22 112.484 70.22C113.905 70.22 115.196 70.7487 116.358 71.806C116.375 71.8233 116.392 71.832 116.41 71.832C116.427 71.832 116.436 71.8233 116.436 71.806V65.982C116.436 65.5833 116.574 65.2367 116.852 64.942C117.146 64.6473 117.493 64.5 117.892 64.5H119.166C119.564 64.5 119.902 64.6473 120.18 64.942C120.474 65.2367 120.622 65.5833 120.622 65.982V82.518C120.622 82.9167 120.474 83.2633 120.18 83.558C119.902 83.8527 119.564 84 119.166 84H118.178C117.762 84 117.406 83.8613 117.112 83.584C116.834 83.2893 116.687 82.934 116.67 82.518V82.31C116.67 82.2927 116.661 82.284 116.644 82.284L116.592 82.336C115.5 83.6187 114.13 84.26 112.484 84.26ZM126.317 84C125.918 84 125.571 83.8527 125.277 83.558C124.982 83.2633 124.835 82.9167 124.835 82.518V71.962C124.835 71.5633 124.982 71.2167 125.277 70.922C125.571 70.6273 125.918 70.48 126.317 70.48H127.773C128.171 70.48 128.518 70.6273 128.813 70.922C129.107 71.2167 129.255 71.5633 129.255 71.962V82.518C129.255 82.9167 129.107 83.2633 128.813 83.558C128.518 83.8527 128.171 84 127.773 84H126.317ZM126.317 67.88C125.918 67.88 125.571 67.7327 125.277 67.438C124.982 67.1433 124.835 66.7967 124.835 66.398V65.982C124.835 65.5833 124.982 65.2367 125.277 64.942C125.571 64.6473 125.918 64.5 126.317 64.5H127.773C128.171 64.5 128.518 64.6473 128.813 64.942C129.107 65.2367 129.255 65.5833 129.255 65.982V66.398C129.255 66.7967 129.107 67.1433 128.813 67.438C128.518 67.7327 128.171 67.88 127.773 67.88H126.317ZM134.781 84C134.383 84 134.036 83.8527 133.741 83.558C133.464 83.2633 133.325 82.9167 133.325 82.518V71.962C133.325 71.5633 133.464 71.2167 133.741 70.922C134.036 70.6273 134.383 70.48 134.781 70.48H135.847C136.263 70.48 136.61 70.6273 136.887 70.922C137.182 71.1993 137.338 71.546 137.355 71.962L137.381 72.17C137.381 72.1873 137.39 72.196 137.407 72.196L137.459 72.144C138.586 70.8613 139.938 70.22 141.515 70.22C143.093 70.22 144.228 70.6707 144.921 71.572C145.615 72.456 145.961 73.9727 145.961 76.122V82.518C145.961 82.9167 145.814 83.2633 145.519 83.558C145.242 83.8527 144.904 84 144.505 84H143.361C142.963 84 142.616 83.8527 142.321 83.558C142.027 83.2633 141.879 82.9167 141.879 82.518V76.252C141.879 75.212 141.741 74.5013 141.463 74.12C141.186 73.7213 140.683 73.522 139.955 73.522C139.349 73.522 138.785 73.7733 138.265 74.276C137.763 74.7613 137.511 75.29 137.511 75.862V82.518C137.511 82.9167 137.364 83.2633 137.069 83.558C136.792 83.8527 136.454 84 136.055 84H134.781ZM155.069 73.34C153.422 73.34 152.599 74.5533 152.599 76.98C152.599 78.1933 152.815 79.1033 153.249 79.71C153.699 80.3167 154.306 80.62 155.069 80.62C155.745 80.62 156.325 80.3947 156.811 79.944C157.296 79.476 157.539 78.9387 157.539 78.332V75.81C157.539 75.1167 157.296 74.536 156.811 74.068C156.325 73.5827 155.745 73.34 155.069 73.34ZM153.691 83.74C152.183 83.74 150.935 83.142 149.947 81.946C148.976 80.7327 148.491 79.0773 148.491 76.98C148.491 74.8307 148.959 73.1667 149.895 71.988C150.831 70.8093 152.096 70.22 153.691 70.22C155.216 70.22 156.525 70.8613 157.617 72.144L157.669 72.196C157.686 72.196 157.695 72.1873 157.695 72.17V71.962C157.712 71.546 157.868 71.1993 158.163 70.922C158.457 70.6273 158.813 70.48 159.229 70.48H160.191C160.589 70.48 160.936 70.6273 161.231 70.922C161.525 71.2167 161.673 71.5633 161.673 71.962V82.83C161.673 85.17 161.023 86.9467 159.723 88.16C158.44 89.3733 156.577 89.98 154.133 89.98C153.093 89.98 152.157 89.9107 151.325 89.772C150.909 89.7027 150.562 89.4947 150.285 89.148C150.007 88.8013 149.869 88.4113 149.869 87.978V87.458C149.869 87.1113 150.016 86.834 150.311 86.626C150.605 86.418 150.926 86.3573 151.273 86.444C152.209 86.6693 153.101 86.782 153.951 86.782C155.199 86.782 156.109 86.4787 156.681 85.872C157.253 85.2827 157.539 84.286 157.539 82.882V82.154C157.539 82.1367 157.53 82.128 157.513 82.128C157.495 82.128 157.478 82.1367 157.461 82.154C156.473 83.2113 155.216 83.74 153.691 83.74ZM174.423 84C174.024 84 173.678 83.8527 173.383 83.558C173.088 83.2633 172.941 82.9167 172.941 82.518V66.502C172.941 66.1033 173.088 65.7567 173.383 65.462C173.678 65.1673 174.024 65.02 174.423 65.02H175.905C176.304 65.02 176.642 65.1673 176.919 65.462C177.214 65.7567 177.361 66.1033 177.361 66.502V72.222C177.361 72.378 177.439 72.456 177.595 72.456H182.951C183.107 72.456 183.185 72.378 183.185 72.222V66.502C183.185 66.1033 183.324 65.7567 183.601 65.462C183.896 65.1673 184.242 65.02 184.641 65.02H186.123C186.522 65.02 186.868 65.1673 187.163 65.462C187.458 65.7567 187.605 66.1033 187.605 66.502V82.518C187.605 82.9167 187.458 83.2633 187.163 83.558C186.868 83.8527 186.522 84 186.123 84H184.641C184.242 84 183.896 83.8527 183.601 83.558C183.324 83.2633 183.185 82.9167 183.185 82.518V76.018C183.185 75.8793 183.107 75.81 182.951 75.81H177.595C177.439 75.81 177.361 75.8793 177.361 76.018V82.518C177.361 82.9167 177.214 83.2633 176.919 83.558C176.642 83.8527 176.304 84 175.905 84H174.423ZM193.294 83.896C192.878 83.8093 192.532 83.5927 192.254 83.246C191.994 82.8993 191.864 82.5007 191.864 82.05V81.244C191.864 80.88 192.012 80.594 192.306 80.386C192.601 80.178 192.922 80.1173 193.268 80.204C194.672 80.568 195.79 80.75 196.622 80.75C199.17 80.75 200.444 79.684 200.444 77.552C200.444 75.8187 199.578 74.952 197.844 74.952C197.446 74.952 197.099 75.0127 196.804 75.134C196.7 75.1687 196.484 75.2553 196.154 75.394C195.842 75.5153 195.6 75.6107 195.426 75.68C195.27 75.732 195.062 75.7927 194.802 75.862C194.56 75.914 194.326 75.94 194.1 75.94H193.294C192.896 75.94 192.558 75.7927 192.28 75.498C192.003 75.2033 191.873 74.8567 191.89 74.458L192.254 66.502C192.289 66.086 192.454 65.7393 192.748 65.462C193.043 65.1673 193.398 65.02 193.814 65.02H202.42C202.819 65.02 203.166 65.1673 203.46 65.462C203.755 65.7567 203.902 66.1033 203.902 66.502V67.1C203.902 67.4987 203.755 67.8453 203.46 68.14C203.166 68.4347 202.819 68.582 202.42 68.582H196.544C196.388 68.582 196.31 68.6513 196.31 68.79L196.154 72.092C196.154 72.1093 196.163 72.118 196.18 72.118H196.232C197.064 71.7713 197.888 71.598 198.702 71.598C200.644 71.598 202.134 72.118 203.174 73.158C204.232 74.1807 204.76 75.6453 204.76 77.552C204.76 82.024 202.108 84.26 196.804 84.26C195.643 84.26 194.473 84.1387 193.294 83.896ZM210.1 83.584C209.771 83.7053 209.459 83.6707 209.164 83.48C208.87 83.272 208.722 82.986 208.722 82.622V81.972C208.722 81.5387 208.852 81.14 209.112 80.776C209.372 80.412 209.71 80.1607 210.126 80.022L220.448 76.486C220.466 76.486 220.474 76.4773 220.474 76.46C220.474 76.4427 220.466 76.434 220.448 76.434L210.126 72.898C209.71 72.7593 209.372 72.508 209.112 72.144C208.852 71.78 208.722 71.3813 208.722 70.948V70.298C208.722 69.934 208.87 69.6567 209.164 69.466C209.459 69.258 209.771 69.2147 210.1 69.336L221.54 73.574C221.956 73.73 222.294 73.99 222.554 74.354C222.814 74.718 222.944 75.1167 222.944 75.55V77.37C222.944 77.8033 222.814 78.202 222.554 78.566C222.294 78.93 221.956 79.19 221.54 79.346L210.1 83.584Z" fill="#9AA5B4"/>
</svg>
