<svg width="266" height="150" viewBox="0 0 266 150" fill="none" xmlns="http://www.w3.org/2000/svg">
<path d="M0 0H266V150H0V0Z" fill="white"/>
<path d="M15.74 81.914C15.196 81.71 14.754 81.37 14.414 80.894C14.074 80.418 13.904 79.8967 13.904 79.33V76.95C13.904 76.3833 14.074 75.862 14.414 75.386C14.754 74.91 15.196 74.57 15.74 74.366L30.7 68.824C31.1307 68.6653 31.5387 68.722 31.924 68.994C32.3093 69.2433 32.502 69.606 32.502 70.082V70.932C32.502 71.4987 32.332 72.02 31.992 72.496C31.652 72.972 31.21 73.3007 30.666 73.482L17.168 78.106C17.1453 78.106 17.134 78.1173 17.134 78.14C17.134 78.1627 17.1453 78.174 17.168 78.174L30.666 82.798C31.21 82.9793 31.652 83.308 31.992 83.784C32.332 84.26 32.502 84.7813 32.502 85.348V86.198C32.502 86.674 32.3093 87.048 31.924 87.32C31.5387 87.5693 31.1307 87.6147 30.7 87.456L15.74 81.914ZM39.9634 88C39.4421 88 38.9887 87.8073 38.6034 87.422C38.2181 87.0367 38.0254 86.5833 38.0254 86.062V65.118C38.0254 64.5967 38.2181 64.1433 38.6034 63.758C38.9887 63.3727 39.4421 63.18 39.9634 63.18H41.9014C42.4227 63.18 42.8647 63.3727 43.2274 63.758C43.6127 64.1433 43.8054 64.5967 43.8054 65.118V72.598C43.8054 72.802 43.9074 72.904 44.1114 72.904H51.1154C51.3194 72.904 51.4214 72.802 51.4214 72.598V65.118C51.4214 64.5967 51.6027 64.1433 51.9654 63.758C52.3507 63.3727 52.8041 63.18 53.3254 63.18H55.2634C55.7847 63.18 56.2381 63.3727 56.6234 63.758C57.0087 64.1433 57.2014 64.5967 57.2014 65.118V86.062C57.2014 86.5833 57.0087 87.0367 56.6234 87.422C56.2381 87.8073 55.7847 88 55.2634 88H53.3254C52.8041 88 52.3507 87.8073 51.9654 87.422C51.6027 87.0367 51.4214 86.5833 51.4214 86.062V77.562C51.4214 77.3807 51.3194 77.29 51.1154 77.29H44.1114C43.9074 77.29 43.8054 77.3807 43.8054 77.562V86.062C43.8054 86.5833 43.6127 87.0367 43.2274 87.422C42.8647 87.8073 42.4227 88 41.9014 88H39.9634ZM69.6053 73.686C68.5853 73.686 67.8146 73.958 67.2933 74.502C66.772 75.0233 66.4433 75.93 66.3073 77.222C66.3073 77.4033 66.3866 77.494 66.5453 77.494H72.2913C72.4953 77.494 72.5973 77.392 72.5973 77.188C72.5066 74.8533 71.5093 73.686 69.6053 73.686ZM70.4553 88.34C67.3726 88.34 64.9926 87.558 63.3153 85.994C61.6606 84.43 60.8333 82.152 60.8333 79.16C60.8333 76.1907 61.57 73.924 63.0433 72.36C64.5393 70.7733 66.6926 69.98 69.5033 69.98C74.898 69.98 77.6406 72.9267 77.7313 78.82C77.7313 79.364 77.516 79.8287 77.0853 80.214C76.6773 80.5767 76.2013 80.758 75.6573 80.758H66.5793C66.3526 80.758 66.262 80.86 66.3073 81.064C66.4886 82.3107 66.9646 83.206 67.7353 83.75C68.5286 84.2713 69.7073 84.532 71.2713 84.532C72.2913 84.532 73.3906 84.3847 74.5693 84.09C75.0453 83.9767 75.4646 84.0673 75.8273 84.362C76.2126 84.6567 76.4053 85.042 76.4053 85.518V85.586C76.4053 86.1527 76.224 86.674 75.8613 87.15C75.5213 87.6033 75.0793 87.8753 74.5353 87.966C73.2206 88.2153 71.8606 88.34 70.4553 88.34ZM89.5447 79.908C86.7794 79.908 85.3967 80.758 85.3967 82.458C85.3967 83.07 85.578 83.5573 85.9407 83.92C86.3034 84.26 86.7907 84.43 87.4027 84.43C88.4907 84.43 89.3747 84.09 90.0547 83.41C90.7347 82.7073 91.0747 81.778 91.0747 80.622V80.214C91.0747 80.01 90.9727 79.908 90.7687 79.908H89.5447ZM85.7367 88.34C84.1727 88.34 82.8807 87.8413 81.8607 86.844C80.8634 85.824 80.3647 84.5093 80.3647 82.9C80.3647 78.7747 83.4247 76.712 89.5447 76.712H90.7687C90.9727 76.712 91.0747 76.6213 91.0747 76.44V76.27C91.0747 75.4087 90.848 74.7853 90.3947 74.4C89.964 74.0147 89.2274 73.822 88.1847 73.822C86.802 73.822 85.1474 74.0373 83.2207 74.468C82.7447 74.5587 82.314 74.4567 81.9287 74.162C81.566 73.8673 81.3847 73.482 81.3847 73.006V72.938C81.3847 72.3713 81.5547 71.8613 81.8947 71.408C82.2574 70.932 82.7107 70.6487 83.2547 70.558C85.2494 70.1727 86.972 69.98 88.4227 69.98C91.392 69.98 93.4887 70.5127 94.7127 71.578C95.9594 72.6433 96.5827 74.4113 96.5827 76.882V86.062C96.5827 86.5833 96.39 87.0367 96.0047 87.422C95.6194 87.8073 95.166 88 94.6447 88H93.3867C92.8427 88 92.378 87.8187 91.9927 87.456C91.6074 87.0707 91.4034 86.606 91.3807 86.062V85.688C91.3807 85.6653 91.3694 85.654 91.3467 85.654C91.3014 85.654 91.2787 85.6653 91.2787 85.688C89.8507 87.456 88.0034 88.34 85.7367 88.34ZM108.656 74.06C106.389 74.06 105.256 75.76 105.256 79.16C105.256 80.8827 105.562 82.1633 106.174 83.002C106.786 83.8407 107.613 84.26 108.656 84.26C109.563 84.26 110.356 83.954 111.036 83.342C111.716 82.73 112.056 82.0387 112.056 81.268V77.052C112.056 76.2813 111.716 75.59 111.036 74.978C110.356 74.366 109.563 74.06 108.656 74.06ZM106.786 88.34C104.769 88.34 103.114 87.5353 101.822 85.926C100.53 84.294 99.8842 82.0387 99.8842 79.16C99.8842 76.2133 100.507 73.9467 101.754 72.36C103.001 70.7733 104.678 69.98 106.786 69.98C108.645 69.98 110.333 70.6713 111.852 72.054C111.875 72.0767 111.897 72.088 111.92 72.088C111.943 72.088 111.954 72.0767 111.954 72.054V64.438C111.954 63.9167 112.135 63.4633 112.498 63.078C112.883 62.6927 113.337 62.5 113.858 62.5H115.524C116.045 62.5 116.487 62.6927 116.85 63.078C117.235 63.4633 117.428 63.9167 117.428 64.438V86.062C117.428 86.5833 117.235 87.0367 116.85 87.422C116.487 87.8073 116.045 88 115.524 88H114.232C113.688 88 113.223 87.8187 112.838 87.456C112.475 87.0707 112.283 86.606 112.26 86.062V85.79C112.26 85.7673 112.249 85.756 112.226 85.756L112.158 85.824C110.73 87.5013 108.939 88.34 106.786 88.34ZM124.876 88C124.354 88 123.901 87.8073 123.516 87.422C123.13 87.0367 122.938 86.5833 122.938 86.062V72.258C122.938 71.7367 123.13 71.2833 123.516 70.898C123.901 70.5127 124.354 70.32 124.876 70.32H126.78C127.301 70.32 127.754 70.5127 128.14 70.898C128.525 71.2833 128.718 71.7367 128.718 72.258V86.062C128.718 86.5833 128.525 87.0367 128.14 87.422C127.754 87.8073 127.301 88 126.78 88H124.876ZM124.876 66.92C124.354 66.92 123.901 66.7273 123.516 66.342C123.13 65.9567 122.938 65.5033 122.938 64.982V64.438C122.938 63.9167 123.13 63.4633 123.516 63.078C123.901 62.6927 124.354 62.5 124.876 62.5H126.78C127.301 62.5 127.754 62.6927 128.14 63.078C128.525 63.4633 128.718 63.9167 128.718 64.438V64.982C128.718 65.5033 128.525 65.9567 128.14 66.342C127.754 66.7273 127.301 66.92 126.78 66.92H124.876ZM135.945 88C135.424 88 134.97 87.8073 134.585 87.422C134.222 87.0367 134.041 86.5833 134.041 86.062V72.258C134.041 71.7367 134.222 71.2833 134.585 70.898C134.97 70.5127 135.424 70.32 135.945 70.32H137.339C137.883 70.32 138.336 70.5127 138.699 70.898C139.084 71.2607 139.288 71.714 139.311 72.258L139.345 72.53C139.345 72.5527 139.356 72.564 139.379 72.564L139.447 72.496C140.92 70.8187 142.688 69.98 144.751 69.98C146.814 69.98 148.298 70.5693 149.205 71.748C150.112 72.904 150.565 74.8873 150.565 77.698V86.062C150.565 86.5833 150.372 87.0367 149.987 87.422C149.624 87.8073 149.182 88 148.661 88H147.165C146.644 88 146.19 87.8073 145.805 87.422C145.42 87.0367 145.227 86.5833 145.227 86.062V77.868C145.227 76.508 145.046 75.5787 144.683 75.08C144.32 74.5587 143.663 74.298 142.711 74.298C141.918 74.298 141.181 74.6267 140.501 75.284C139.844 75.9187 139.515 76.61 139.515 77.358V86.062C139.515 86.5833 139.322 87.0367 138.937 87.422C138.574 87.8073 138.132 88 137.611 88H135.945ZM162.474 74.06C160.321 74.06 159.244 75.6467 159.244 78.82C159.244 80.4067 159.528 81.5967 160.094 82.39C160.684 83.1833 161.477 83.58 162.474 83.58C163.358 83.58 164.118 83.2853 164.752 82.696C165.387 82.084 165.704 81.3813 165.704 80.588V77.29C165.704 76.3833 165.387 75.624 164.752 75.012C164.118 74.3773 163.358 74.06 162.474 74.06ZM160.672 87.66C158.7 87.66 157.068 86.878 155.776 85.314C154.507 83.7273 153.872 81.5627 153.872 78.82C153.872 76.0093 154.484 73.8333 155.708 72.292C156.932 70.7507 158.587 69.98 160.672 69.98C162.667 69.98 164.378 70.8187 165.806 72.496L165.874 72.564C165.897 72.564 165.908 72.5527 165.908 72.53V72.258C165.931 71.714 166.135 71.2607 166.52 70.898C166.906 70.5127 167.37 70.32 167.914 70.32H169.172C169.694 70.32 170.147 70.5127 170.532 70.898C170.918 71.2833 171.11 71.7367 171.11 72.258V86.47C171.11 89.53 170.26 91.8533 168.56 93.44C166.883 95.0267 164.446 95.82 161.25 95.82C159.89 95.82 158.666 95.7293 157.578 95.548C157.034 95.4573 156.581 95.1853 156.218 94.732C155.856 94.2787 155.674 93.7687 155.674 93.202V92.522C155.674 92.0687 155.867 91.706 156.252 91.434C156.638 91.162 157.057 91.0827 157.51 91.196C158.734 91.4907 159.902 91.638 161.012 91.638C162.644 91.638 163.834 91.2413 164.582 90.448C165.33 89.6773 165.704 88.374 165.704 86.538V85.586C165.704 85.5633 165.693 85.552 165.67 85.552C165.648 85.552 165.625 85.5633 165.602 85.586C164.31 86.9687 162.667 87.66 160.672 87.66ZM187.784 88C187.262 88 186.809 87.8073 186.424 87.422C186.038 87.0367 185.846 86.5833 185.846 86.062V65.118C185.846 64.5967 186.038 64.1433 186.424 63.758C186.809 63.3727 187.262 63.18 187.784 63.18H189.722C190.243 63.18 190.685 63.3727 191.048 63.758C191.433 64.1433 191.626 64.5967 191.626 65.118V72.598C191.626 72.802 191.728 72.904 191.932 72.904H198.936C199.14 72.904 199.242 72.802 199.242 72.598V65.118C199.242 64.5967 199.423 64.1433 199.786 63.758C200.171 63.3727 200.624 63.18 201.146 63.18H203.084C203.605 63.18 204.058 63.3727 204.444 63.758C204.829 64.1433 205.022 64.5967 205.022 65.118V86.062C205.022 86.5833 204.829 87.0367 204.444 87.422C204.058 87.8073 203.605 88 203.084 88H201.146C200.624 88 200.171 87.8073 199.786 87.422C199.423 87.0367 199.242 86.5833 199.242 86.062V77.562C199.242 77.3807 199.14 77.29 198.936 77.29H191.932C191.728 77.29 191.626 77.3807 191.626 77.562V86.062C191.626 86.5833 191.433 87.0367 191.048 87.422C190.685 87.8073 190.243 88 189.722 88H187.784ZM212.428 73.142C212.11 73.3913 211.77 73.4253 211.408 73.244C211.068 73.0627 210.898 72.768 210.898 72.36V69.878C210.898 68.586 211.419 67.566 212.462 66.818L215.896 64.302C216.916 63.554 218.083 63.18 219.398 63.18H221.54C222.061 63.18 222.514 63.3727 222.9 63.758C223.285 64.1433 223.478 64.5967 223.478 65.118V86.062C223.478 86.5833 223.285 87.0367 222.9 87.422C222.514 87.8073 222.061 88 221.54 88H219.398C218.876 88 218.423 87.8073 218.038 87.422C217.652 87.0367 217.46 86.5833 217.46 86.062V69.538H217.426H217.392L212.428 73.142ZM234.439 87.456C234.008 87.6147 233.6 87.5693 233.215 87.32C232.83 87.048 232.637 86.674 232.637 86.198V85.348C232.637 84.7813 232.807 84.26 233.147 83.784C233.487 83.308 233.929 82.9793 234.473 82.798L247.971 78.174C247.994 78.174 248.005 78.1627 248.005 78.14C248.005 78.1173 247.994 78.106 247.971 78.106L234.473 73.482C233.929 73.3007 233.487 72.972 233.147 72.496C232.807 72.02 232.637 71.4987 232.637 70.932V70.082C232.637 69.606 232.83 69.2433 233.215 68.994C233.6 68.722 234.008 68.6653 234.439 68.824L249.399 74.366C249.943 74.57 250.385 74.91 250.725 75.386C251.065 75.862 251.235 76.3833 251.235 76.95V79.33C251.235 79.8967 251.065 80.418 250.725 80.894C250.385 81.37 249.943 81.71 249.399 81.914L234.439 87.456Z" fill="#9AA5B4"/>
</svg>
