<svg width="266" height="150" viewBox="0 0 266 150" fill="none" xmlns="http://www.w3.org/2000/svg">
<path d="M0 0H266V150H0V0Z" fill="white"/>
<path d="M109.793 71C109.394 71 109.048 70.8527 108.753 70.558C108.458 70.2633 108.311 69.9167 108.311 69.518V53.502C108.311 53.1033 108.458 52.7567 108.753 52.462C109.048 52.1673 109.394 52.02 109.793 52.02H111.405C111.804 52.02 112.142 52.1673 112.419 52.462C112.714 52.7567 112.861 53.1033 112.861 53.502V67.126C112.861 67.2647 112.939 67.334 113.095 67.334H119.413C119.812 67.334 120.158 67.4813 120.453 67.776C120.748 68.0707 120.895 68.4173 120.895 68.816V69.518C120.895 69.9167 120.748 70.2633 120.453 70.558C120.158 70.8527 119.812 71 119.413 71H109.793ZM126.077 71C125.679 71 125.332 70.8527 125.037 70.558C124.743 70.2633 124.595 69.9167 124.595 69.518V58.962C124.595 58.5633 124.743 58.2167 125.037 57.922C125.332 57.6273 125.679 57.48 126.077 57.48H127.533C127.932 57.48 128.279 57.6273 128.573 57.922C128.868 58.2167 129.015 58.5633 129.015 58.962V69.518C129.015 69.9167 128.868 70.2633 128.573 70.558C128.279 70.8527 127.932 71 127.533 71H126.077ZM126.077 54.88C125.679 54.88 125.332 54.7327 125.037 54.438C124.743 54.1433 124.595 53.7967 124.595 53.398V52.982C124.595 52.5833 124.743 52.2367 125.037 51.942C125.332 51.6473 125.679 51.5 126.077 51.5H127.533C127.932 51.5 128.279 51.6473 128.573 51.942C128.868 52.2367 129.015 52.5833 129.015 52.982V53.398C129.015 53.7967 128.868 54.1433 128.573 54.438C128.279 54.7327 127.932 54.88 127.533 54.88H126.077ZM137.922 65.8C136.05 65.4533 134.707 64.916 133.892 64.188C133.095 63.46 132.696 62.498 132.696 61.302C132.696 60.0193 133.173 59.0227 134.126 58.312C135.097 57.584 136.553 57.22 138.494 57.22C139.638 57.22 140.808 57.3153 142.004 57.506C142.42 57.5753 142.758 57.7747 143.018 58.104C143.295 58.4333 143.434 58.8147 143.434 59.248V59.378C143.434 59.742 143.287 60.0367 142.992 60.262C142.715 60.4873 142.394 60.5653 142.03 60.496C140.903 60.2707 139.863 60.158 138.91 60.158C138.199 60.158 137.697 60.2447 137.402 60.418C137.125 60.5913 136.986 60.8513 136.986 61.198C136.986 61.8567 137.506 62.29 138.546 62.498C140.522 62.8273 141.9 63.3473 142.68 64.058C143.477 64.7687 143.876 65.8 143.876 67.152C143.876 68.452 143.391 69.466 142.42 70.194C141.449 70.9047 140.037 71.26 138.182 71.26C136.83 71.26 135.547 71.13 134.334 70.87C133.918 70.7833 133.571 70.5667 133.294 70.22C133.034 69.856 132.904 69.4487 132.904 68.998V68.79C132.904 68.426 133.051 68.1487 133.346 67.958C133.641 67.75 133.97 67.6893 134.334 67.776C135.461 68.0707 136.57 68.218 137.662 68.218C138.945 68.218 139.586 67.8453 139.586 67.1C139.586 66.7533 139.465 66.4847 139.222 66.294C138.997 66.1033 138.563 65.9387 137.922 65.8ZM147.248 60.938C146.85 60.938 146.503 60.7993 146.208 60.522C145.914 60.2273 145.766 59.8807 145.766 59.482C145.766 59.0833 145.914 58.7367 146.208 58.442C146.503 58.1473 146.85 58 147.248 58H148.288C148.427 58 148.496 57.922 148.496 57.766V54.542C148.496 54.1433 148.644 53.7967 148.938 53.502C149.233 53.2073 149.58 53.06 149.978 53.06H151.226C151.625 53.06 151.972 53.2073 152.266 53.502C152.561 53.7967 152.708 54.1433 152.708 54.542V57.766C152.708 57.922 152.786 58 152.942 58H155.49C155.889 58 156.227 58.1473 156.504 58.442C156.799 58.7367 156.946 59.0833 156.946 59.482C156.946 59.8807 156.799 60.2273 156.504 60.522C156.227 60.7993 155.889 60.938 155.49 60.938H152.942C152.786 60.938 152.708 61.016 152.708 61.172V65.618C152.708 66.71 152.804 67.4033 152.994 67.698C153.202 67.9927 153.653 68.14 154.346 68.14C154.71 68.14 154.996 68.1227 155.204 68.088C155.586 68.036 155.924 68.1227 156.218 68.348C156.513 68.5733 156.66 68.868 156.66 69.232V69.44C156.66 69.8733 156.522 70.2547 156.244 70.584C155.967 70.9133 155.612 71.104 155.178 71.156C154.641 71.2253 154.017 71.26 153.306 71.26C151.538 71.26 150.29 70.8873 149.562 70.142C148.852 69.3793 148.496 68.0187 148.496 66.06V61.172C148.496 61.016 148.427 60.938 148.288 60.938H147.248Z" fill="#9AA5B4"/>
<path d="M178.227 86H95.7732C94.7939 86 94 86.8954 94 88C94 89.1046 94.7939 90 95.7732 90H178.227C179.206 90 180 89.1046 180 88C180 86.8954 179.206 86 178.227 86Z" fill="#A0AEC0"/>
<path d="M178.227 100H95.7732C94.7939 100 94 100.895 94 102C94 103.105 94.7939 104 95.7732 104H178.227C179.206 104 180 103.105 180 102C180 100.895 179.206 100 178.227 100Z" fill="#A0AEC0"/>
<path d="M178.227 114H95.7732C94.7939 114 94 114.895 94 116C94 117.105 94.7939 118 95.7732 118H178.227C179.206 118 180 117.105 180 116C180 114.895 179.206 114 178.227 114Z" fill="#A0AEC0"/>
<circle cx="87" cy="88" r="2" fill="#DC3545"/>
<circle cx="87" cy="102" r="2" fill="#DC3545"/>
<circle cx="87" cy="116" r="2" fill="#DC3545"/>
</svg>
