<svg width="266" height="150" viewBox="0 0 266 150" fill="none" xmlns="http://www.w3.org/2000/svg">
<path d="M0 0H266V150H0V0Z" fill="white"/>
<path d="M107.023 68.686C106.624 68.686 106.278 68.5387 105.983 68.244C105.688 67.9493 105.541 67.6027 105.541 67.204V66.502C105.541 66.1033 105.688 65.7567 105.983 65.462C106.278 65.1673 106.624 65.02 107.023 65.02H118.619C119.018 65.02 119.364 65.1673 119.659 65.462C119.954 65.7567 120.101 66.1033 120.101 66.502V67.204C120.101 67.6027 119.954 67.9493 119.659 68.244C119.364 68.5387 119.018 68.686 118.619 68.686H115.291C115.152 68.686 115.083 68.7553 115.083 68.894V82.518C115.083 82.9167 114.936 83.2633 114.641 83.558C114.346 83.8527 114 84 113.601 84H112.041C111.642 84 111.296 83.8527 111.001 83.558C110.706 83.2633 110.559 82.9167 110.559 82.518V68.894C110.559 68.7553 110.49 68.686 110.351 68.686H107.023ZM126.608 73.054C125.828 73.054 125.238 73.262 124.84 73.678C124.441 74.0767 124.19 74.77 124.086 75.758C124.086 75.8967 124.146 75.966 124.268 75.966H128.662C128.818 75.966 128.896 75.888 128.896 75.732C128.826 73.9467 128.064 73.054 126.608 73.054ZM127.258 84.26C124.9 84.26 123.08 83.662 121.798 82.466C120.532 81.27 119.9 79.528 119.9 77.24C119.9 74.9693 120.463 73.236 121.59 72.04C122.734 70.8267 124.38 70.22 126.53 70.22C130.655 70.22 132.752 72.4733 132.822 76.98C132.822 77.396 132.657 77.7513 132.328 78.046C132.016 78.3233 131.652 78.462 131.236 78.462H124.294C124.12 78.462 124.051 78.54 124.086 78.696C124.224 79.6493 124.588 80.334 125.178 80.75C125.784 81.1487 126.686 81.348 127.882 81.348C128.662 81.348 129.502 81.2353 130.404 81.01C130.768 80.9233 131.088 80.9927 131.366 81.218C131.66 81.4433 131.808 81.738 131.808 82.102V82.154C131.808 82.5873 131.669 82.986 131.392 83.35C131.132 83.6967 130.794 83.9047 130.378 83.974C129.372 84.1647 128.332 84.26 127.258 84.26ZM135.267 84C134.938 84 134.687 83.8613 134.513 83.584C134.357 83.3067 134.366 83.0207 134.539 82.726L137.659 77.292C137.729 77.1707 137.729 77.0493 137.659 76.928L134.669 71.754C134.496 71.4593 134.487 71.1733 134.643 70.896C134.817 70.6187 135.068 70.48 135.397 70.48H136.957C137.391 70.48 137.798 70.61 138.179 70.87C138.561 71.1127 138.847 71.4333 139.037 71.832L140.493 74.978C140.493 74.9953 140.502 75.004 140.519 75.004C140.537 75.004 140.545 74.9953 140.545 74.978L142.001 71.832C142.175 71.4333 142.452 71.1127 142.833 70.87C143.215 70.61 143.631 70.48 144.081 70.48H145.537C145.849 70.48 146.083 70.6187 146.239 70.896C146.413 71.1733 146.421 71.4593 146.265 71.754L143.275 76.928C143.189 77.0493 143.189 77.1707 143.275 77.292L146.395 82.726C146.551 83.0207 146.543 83.3067 146.369 83.584C146.213 83.8613 145.979 84 145.667 84H144.107C143.657 84 143.232 83.8787 142.833 83.636C142.452 83.3933 142.175 83.0727 142.001 82.674L140.441 79.294C140.441 79.2767 140.433 79.268 140.415 79.268C140.398 79.268 140.389 79.2767 140.389 79.294L138.829 82.674C138.639 83.0727 138.344 83.3933 137.945 83.636C137.564 83.8787 137.157 84 136.723 84H135.267ZM149.368 73.938C148.97 73.938 148.623 73.7993 148.328 73.522C148.034 73.2273 147.886 72.8807 147.886 72.482C147.886 72.0833 148.034 71.7367 148.328 71.442C148.623 71.1473 148.97 71 149.368 71H150.408C150.547 71 150.616 70.922 150.616 70.766V67.542C150.616 67.1433 150.764 66.7967 151.058 66.502C151.353 66.2073 151.7 66.06 152.098 66.06H153.346C153.745 66.06 154.092 66.2073 154.386 66.502C154.681 66.7967 154.828 67.1433 154.828 67.542V70.766C154.828 70.922 154.906 71 155.062 71H157.61C158.009 71 158.347 71.1473 158.624 71.442C158.919 71.7367 159.066 72.0833 159.066 72.482C159.066 72.8807 158.919 73.2273 158.624 73.522C158.347 73.7993 158.009 73.938 157.61 73.938H155.062C154.906 73.938 154.828 74.016 154.828 74.172V78.618C154.828 79.71 154.924 80.4033 155.114 80.698C155.322 80.9927 155.773 81.14 156.466 81.14C156.83 81.14 157.116 81.1227 157.324 81.088C157.706 81.036 158.044 81.1227 158.338 81.348C158.633 81.5733 158.78 81.868 158.78 82.232V82.44C158.78 82.8733 158.642 83.2547 158.364 83.584C158.087 83.9133 157.732 84.104 157.298 84.156C156.761 84.2253 156.137 84.26 155.426 84.26C153.658 84.26 152.41 83.8873 151.682 83.142C150.972 82.3793 150.616 81.0187 150.616 79.06V74.172C150.616 74.016 150.547 73.938 150.408 73.938H149.368Z" fill="#9AA5B4"/>
</svg>
