<svg width="266" height="150" viewBox="0 0 266 150" fill="none" xmlns="http://www.w3.org/2000/svg">
<path d="M0 0H266V150H0V0Z" fill="white"/>
<path d="M22.52 81.272C22.008 81.08 21.592 80.76 21.272 80.312C20.952 79.864 20.792 79.3733 20.792 78.84V76.6C20.792 76.0667 20.952 75.576 21.272 75.128C21.592 74.68 22.008 74.36 22.52 74.168L36.6 68.952C37.0053 68.8027 37.3893 68.856 37.752 69.112C38.1147 69.3467 38.296 69.688 38.296 70.136V70.936C38.296 71.4693 38.136 71.96 37.816 72.408C37.496 72.856 37.08 73.1653 36.568 73.336L23.864 77.688C23.8427 77.688 23.832 77.6987 23.832 77.72C23.832 77.7413 23.8427 77.752 23.864 77.752L36.568 82.104C37.08 82.2747 37.496 82.584 37.816 83.032C38.136 83.48 38.296 83.9707 38.296 84.504V85.304C38.296 85.752 38.1147 86.104 37.752 86.36C37.3893 86.5947 37.0053 86.6373 36.6 86.488L22.52 81.272ZM45.3185 87C44.8278 87 44.4012 86.8187 44.0385 86.456C43.6758 86.0933 43.4945 85.6667 43.4945 85.176V65.464C43.4945 64.9733 43.6758 64.5467 44.0385 64.184C44.4012 63.8213 44.8278 63.64 45.3185 63.64H47.1425C47.6332 63.64 48.0492 63.8213 48.3905 64.184C48.7532 64.5467 48.9345 64.9733 48.9345 65.464V72.504C48.9345 72.696 49.0305 72.792 49.2225 72.792H55.8145C56.0065 72.792 56.1025 72.696 56.1025 72.504V65.464C56.1025 64.9733 56.2732 64.5467 56.6145 64.184C56.9772 63.8213 57.4038 63.64 57.8945 63.64H59.7185C60.2092 63.64 60.6358 63.8213 60.9985 64.184C61.3612 64.5467 61.5425 64.9733 61.5425 65.464V85.176C61.5425 85.6667 61.3612 86.0933 60.9985 86.456C60.6358 86.8187 60.2092 87 59.7185 87H57.8945C57.4038 87 56.9772 86.8187 56.6145 86.456C56.2732 86.0933 56.1025 85.6667 56.1025 85.176V77.176C56.1025 77.0053 56.0065 76.92 55.8145 76.92H49.2225C49.0305 76.92 48.9345 77.0053 48.9345 77.176V85.176C48.9345 85.6667 48.7532 86.0933 48.3905 86.456C48.0492 86.8187 47.6332 87 47.1425 87H45.3185ZM73.2168 73.528C72.2568 73.528 71.5314 73.784 71.0408 74.296C70.5501 74.7867 70.2408 75.64 70.1128 76.856C70.1128 77.0267 70.1874 77.112 70.3368 77.112H75.7448C75.9368 77.112 76.0328 77.016 76.0328 76.824C75.9474 74.6267 75.0088 73.528 73.2168 73.528ZM74.0168 87.32C71.1154 87.32 68.8754 86.584 67.2968 85.112C65.7394 83.64 64.9608 81.496 64.9608 78.68C64.9608 75.8853 65.6541 73.752 67.0408 72.28C68.4488 70.7867 70.4754 70.04 73.1208 70.04C78.1981 70.04 80.7794 72.8133 80.8647 78.36C80.8647 78.872 80.6621 79.3093 80.2568 79.672C79.8728 80.0133 79.4248 80.184 78.9128 80.184H70.3688C70.1554 80.184 70.0701 80.28 70.1128 80.472C70.2834 81.6453 70.7314 82.488 71.4568 83C72.2034 83.4907 73.3128 83.736 74.7848 83.736C75.7448 83.736 76.7794 83.5973 77.8888 83.32C78.3368 83.2133 78.7314 83.2987 79.0728 83.576C79.4354 83.8533 79.6168 84.216 79.6168 84.664V84.728C79.6168 85.2613 79.4461 85.752 79.1048 86.2C78.7848 86.6267 78.3688 86.8827 77.8568 86.968C76.6194 87.2027 75.3394 87.32 74.0168 87.32ZM91.9833 79.384C89.3806 79.384 88.0793 80.184 88.0793 81.784C88.0793 82.36 88.2499 82.8187 88.5913 83.16C88.9326 83.48 89.3913 83.64 89.9673 83.64C90.9913 83.64 91.8233 83.32 92.4633 82.68C93.1033 82.0187 93.4233 81.144 93.4233 80.056V79.672C93.4233 79.48 93.3273 79.384 93.1353 79.384H91.9833ZM88.3993 87.32C86.9273 87.32 85.7113 86.8507 84.7513 85.912C83.8126 84.952 83.3433 83.7147 83.3433 82.2C83.3433 78.3173 86.2233 76.376 91.9833 76.376H93.1353C93.3273 76.376 93.4233 76.2907 93.4233 76.12V75.96C93.4233 75.1493 93.2099 74.5627 92.7833 74.2C92.3779 73.8373 91.6846 73.656 90.7033 73.656C89.4019 73.656 87.8446 73.8587 86.0312 74.264C85.5833 74.3493 85.1779 74.2533 84.8153 73.976C84.4739 73.6987 84.3033 73.336 84.3033 72.888V72.824C84.3033 72.2907 84.4633 71.8107 84.7833 71.384C85.1246 70.936 85.5513 70.6693 86.0633 70.584C87.9406 70.2213 89.5619 70.04 90.9273 70.04C93.7219 70.04 95.6953 70.5413 96.8473 71.544C98.0206 72.5467 98.6073 74.2107 98.6073 76.536V85.176C98.6073 85.6667 98.4259 86.0933 98.0633 86.456C97.7006 86.8187 97.2739 87 96.7833 87H95.5993C95.0873 87 94.6499 86.8293 94.2873 86.488C93.9246 86.1253 93.7326 85.688 93.7113 85.176V84.824C93.7113 84.8027 93.7006 84.792 93.6793 84.792C93.6366 84.792 93.6153 84.8027 93.6153 84.824C92.2713 86.488 90.5326 87.32 88.3993 87.32ZM109.97 73.88C107.837 73.88 106.771 75.48 106.771 78.68C106.771 80.3013 107.059 81.5067 107.635 82.296C108.211 83.0853 108.989 83.48 109.97 83.48C110.824 83.48 111.571 83.192 112.211 82.616C112.851 82.04 113.171 81.3893 113.171 80.664V76.696C113.171 75.9707 112.851 75.32 112.211 74.744C111.571 74.168 110.824 73.88 109.97 73.88ZM108.211 87.32C106.312 87.32 104.755 86.5627 103.539 85.048C102.323 83.512 101.715 81.3893 101.715 78.68C101.715 75.9067 102.301 73.7733 103.475 72.28C104.648 70.7867 106.227 70.04 108.211 70.04C109.96 70.04 111.549 70.6907 112.979 71.992C113 72.0133 113.021 72.024 113.043 72.024C113.064 72.024 113.075 72.0133 113.075 71.992V64.824C113.075 64.3333 113.245 63.9067 113.587 63.544C113.949 63.1813 114.376 63 114.867 63H116.435C116.925 63 117.341 63.1813 117.683 63.544C118.045 63.9067 118.227 64.3333 118.227 64.824V85.176C118.227 85.6667 118.045 86.0933 117.683 86.456C117.341 86.8187 116.925 87 116.435 87H115.219C114.707 87 114.269 86.8293 113.907 86.488C113.565 86.1253 113.384 85.688 113.363 85.176V84.92C113.363 84.8987 113.352 84.888 113.331 84.888L113.267 84.952C111.923 86.5307 110.237 87.32 108.211 87.32ZM125.236 87C124.745 87 124.319 86.8187 123.956 86.456C123.593 86.0933 123.412 85.6667 123.412 85.176V72.184C123.412 71.6933 123.593 71.2667 123.956 70.904C124.319 70.5413 124.745 70.36 125.236 70.36H127.028C127.519 70.36 127.945 70.5413 128.308 70.904C128.671 71.2667 128.852 71.6933 128.852 72.184V85.176C128.852 85.6667 128.671 86.0933 128.308 86.456C127.945 86.8187 127.519 87 127.028 87H125.236ZM125.236 67.16C124.745 67.16 124.319 66.9787 123.956 66.616C123.593 66.2533 123.412 65.8267 123.412 65.336V64.824C123.412 64.3333 123.593 63.9067 123.956 63.544C124.319 63.1813 124.745 63 125.236 63H127.028C127.519 63 127.945 63.1813 128.308 63.544C128.671 63.9067 128.852 64.3333 128.852 64.824V65.336C128.852 65.8267 128.671 66.2533 128.308 66.616C127.945 66.9787 127.519 67.16 127.028 67.16H125.236ZM135.654 87C135.163 87 134.737 86.8187 134.374 86.456C134.033 86.0933 133.862 85.6667 133.862 85.176V72.184C133.862 71.6933 134.033 71.2667 134.374 70.904C134.737 70.5413 135.163 70.36 135.654 70.36H136.966C137.478 70.36 137.905 70.5413 138.246 70.904C138.609 71.2453 138.801 71.672 138.822 72.184L138.854 72.44C138.854 72.4613 138.865 72.472 138.886 72.472L138.95 72.408C140.337 70.8293 142.001 70.04 143.942 70.04C145.883 70.04 147.281 70.5947 148.134 71.704C148.987 72.792 149.414 74.6587 149.414 77.304V85.176C149.414 85.6667 149.233 86.0933 148.87 86.456C148.529 86.8187 148.113 87 147.622 87H146.214C145.723 87 145.297 86.8187 144.934 86.456C144.571 86.0933 144.39 85.6667 144.39 85.176V77.464C144.39 76.184 144.219 75.3093 143.878 74.84C143.537 74.3493 142.918 74.104 142.022 74.104C141.275 74.104 140.582 74.4133 139.942 75.032C139.323 75.6293 139.014 76.28 139.014 76.984V85.176C139.014 85.6667 138.833 86.0933 138.47 86.456C138.129 86.8187 137.713 87 137.222 87H135.654ZM160.623 73.88C158.596 73.88 157.583 75.3733 157.583 78.36C157.583 79.8533 157.85 80.9733 158.383 81.72C158.938 82.4667 159.684 82.84 160.623 82.84C161.455 82.84 162.17 82.5627 162.767 82.008C163.364 81.432 163.663 80.7707 163.663 80.024V76.92C163.663 76.0667 163.364 75.352 162.767 74.776C162.17 74.1787 161.455 73.88 160.623 73.88ZM158.927 86.68C157.071 86.68 155.535 85.944 154.319 84.472C153.124 82.9787 152.527 80.9413 152.527 78.36C152.527 75.7147 153.103 73.6667 154.255 72.216C155.407 70.7653 156.964 70.04 158.927 70.04C160.804 70.04 162.415 70.8293 163.759 72.408L163.823 72.472C163.844 72.472 163.855 72.4613 163.855 72.44V72.184C163.876 71.672 164.068 71.2453 164.431 70.904C164.794 70.5413 165.231 70.36 165.743 70.36H166.927C167.418 70.36 167.844 70.5413 168.207 70.904C168.57 71.2667 168.751 71.6933 168.751 72.184V85.56C168.751 88.44 167.951 90.6267 166.351 92.12C164.772 93.6133 162.479 94.36 159.471 94.36C158.191 94.36 157.039 94.2747 156.015 94.104C155.503 94.0187 155.076 93.7627 154.735 93.336C154.394 92.9093 154.223 92.4293 154.223 91.896V91.256C154.223 90.8293 154.404 90.488 154.767 90.232C155.13 89.976 155.524 89.9013 155.951 90.008C157.103 90.2853 158.202 90.424 159.247 90.424C160.783 90.424 161.903 90.0507 162.607 89.304C163.311 88.5787 163.663 87.352 163.663 85.624V84.728C163.663 84.7067 163.652 84.696 163.631 84.696C163.61 84.696 163.588 84.7067 163.567 84.728C162.351 86.0293 160.804 86.68 158.927 86.68ZM184.444 87C183.953 87 183.526 86.8187 183.164 86.456C182.801 86.0933 182.62 85.6667 182.62 85.176V65.464C182.62 64.9733 182.801 64.5467 183.164 64.184C183.526 63.8213 183.953 63.64 184.444 63.64H186.268C186.758 63.64 187.174 63.8213 187.516 64.184C187.878 64.5467 188.06 64.9733 188.06 65.464V72.504C188.06 72.696 188.156 72.792 188.348 72.792H194.94C195.132 72.792 195.228 72.696 195.228 72.504V65.464C195.228 64.9733 195.398 64.5467 195.74 64.184C196.102 63.8213 196.529 63.64 197.02 63.64H198.844C199.334 63.64 199.761 63.8213 200.124 64.184C200.486 64.5467 200.668 64.9733 200.668 65.464V85.176C200.668 85.6667 200.486 86.0933 200.124 86.456C199.761 86.8187 199.334 87 198.844 87H197.02C196.529 87 196.102 86.8187 195.74 86.456C195.398 86.0933 195.228 85.6667 195.228 85.176V77.176C195.228 77.0053 195.132 76.92 194.94 76.92H188.348C188.156 76.92 188.06 77.0053 188.06 77.176V85.176C188.06 85.6667 187.878 86.0933 187.516 86.456C187.174 86.8187 186.758 87 186.268 87H184.444ZM207.414 87C206.923 87 206.496 86.8187 206.134 86.456C205.771 86.0933 205.59 85.6667 205.59 85.176V84.44C205.59 83.2453 206.07 82.2747 207.03 81.528C210.614 78.712 212.982 76.568 214.134 75.096C215.307 73.624 215.894 72.184 215.894 70.776C215.894 68.8133 214.806 67.832 212.63 67.832C211.307 67.832 209.686 68.1947 207.766 68.92C207.36 69.0693 206.976 69.0267 206.614 68.792C206.251 68.5573 206.07 68.2267 206.07 67.8V66.456C206.07 65.9013 206.23 65.4107 206.55 64.984C206.87 64.536 207.296 64.2373 207.83 64.088C209.771 63.576 211.638 63.32 213.43 63.32C216.011 63.32 217.995 63.9387 219.382 65.176C220.79 66.392 221.494 68.088 221.494 70.264C221.494 72.1413 220.896 73.9333 219.702 75.64C218.528 77.3253 216.224 79.6187 212.79 82.52C212.768 82.5413 212.758 82.5627 212.758 82.584C212.758 82.6053 212.768 82.616 212.79 82.616H219.798C220.288 82.616 220.704 82.7973 221.046 83.16C221.408 83.5227 221.59 83.9493 221.59 84.44V85.176C221.59 85.6667 221.408 86.0933 221.046 86.456C220.704 86.8187 220.288 87 219.798 87H207.414ZM228.354 86.488C227.949 86.6373 227.565 86.5947 227.202 86.36C226.84 86.104 226.658 85.752 226.658 85.304V84.504C226.658 83.9707 226.818 83.48 227.138 83.032C227.458 82.584 227.874 82.2747 228.386 82.104L241.09 77.752C241.112 77.752 241.122 77.7413 241.122 77.72C241.122 77.6987 241.112 77.688 241.09 77.688L228.386 73.336C227.874 73.1653 227.458 72.856 227.138 72.408C226.818 71.96 226.658 71.4693 226.658 70.936V70.136C226.658 69.688 226.84 69.3467 227.202 69.112C227.565 68.856 227.949 68.8027 228.354 68.952L242.434 74.168C242.946 74.36 243.362 74.68 243.682 75.128C244.002 75.576 244.162 76.0667 244.162 76.6V78.84C244.162 79.3733 244.002 79.864 243.682 80.312C243.362 80.76 242.946 81.08 242.434 81.272L228.354 86.488Z" fill="#9AA5B4"/>
</svg>
