<svg width="266" height="150" viewBox="0 0 266 150" fill="none" xmlns="http://www.w3.org/2000/svg">
<path d="M0 0H266V150H0V0Z" fill="white"/>
<path d="M107.825 84C107.427 84 107.08 83.8527 106.785 83.558C106.491 83.2633 106.343 82.9167 106.343 82.518V66.502C106.343 66.1033 106.491 65.7567 106.785 65.462C107.08 65.1673 107.427 65.02 107.825 65.02H109.437C109.836 65.02 110.174 65.1673 110.451 65.462C110.746 65.7567 110.893 66.1033 110.893 66.502V80.126C110.893 80.2647 110.971 80.334 111.127 80.334H117.445C117.844 80.334 118.191 80.4813 118.485 80.776C118.78 81.0707 118.927 81.4173 118.927 81.816V82.518C118.927 82.9167 118.78 83.2633 118.485 83.558C118.191 83.8527 117.844 84 117.445 84H107.825ZM124.11 84C123.711 84 123.364 83.8527 123.07 83.558C122.775 83.2633 122.628 82.9167 122.628 82.518V71.962C122.628 71.5633 122.775 71.2167 123.07 70.922C123.364 70.6273 123.711 70.48 124.11 70.48H125.566C125.964 70.48 126.311 70.6273 126.606 70.922C126.9 71.2167 127.048 71.5633 127.048 71.962V82.518C127.048 82.9167 126.9 83.2633 126.606 83.558C126.311 83.8527 125.964 84 125.566 84H124.11ZM124.11 67.88C123.711 67.88 123.364 67.7327 123.07 67.438C122.775 67.1433 122.628 66.7967 122.628 66.398V65.982C122.628 65.5833 122.775 65.2367 123.07 64.942C123.364 64.6473 123.711 64.5 124.11 64.5H125.566C125.964 64.5 126.311 64.6473 126.606 64.942C126.9 65.2367 127.048 65.5833 127.048 65.982V66.398C127.048 66.7967 126.9 67.1433 126.606 67.438C126.311 67.7327 125.964 67.88 125.566 67.88H124.11ZM132.574 84C132.176 84 131.829 83.8527 131.534 83.558C131.257 83.2633 131.118 82.9167 131.118 82.518V71.962C131.118 71.5633 131.257 71.2167 131.534 70.922C131.829 70.6273 132.176 70.48 132.574 70.48H133.64C134.056 70.48 134.403 70.6273 134.68 70.922C134.975 71.1993 135.131 71.546 135.148 71.962L135.174 72.17C135.174 72.1873 135.183 72.196 135.2 72.196L135.252 72.144C136.379 70.8613 137.731 70.22 139.308 70.22C140.886 70.22 142.021 70.6707 142.714 71.572C143.408 72.456 143.754 73.9727 143.754 76.122V82.518C143.754 82.9167 143.607 83.2633 143.312 83.558C143.035 83.8527 142.697 84 142.298 84H141.154C140.756 84 140.409 83.8527 140.114 83.558C139.82 83.2633 139.672 82.9167 139.672 82.518V76.252C139.672 75.212 139.534 74.5013 139.256 74.12C138.979 73.7213 138.476 73.522 137.748 73.522C137.142 73.522 136.578 73.7733 136.058 74.276C135.556 74.7613 135.304 75.29 135.304 75.862V82.518C135.304 82.9167 135.157 83.2633 134.862 83.558C134.585 83.8527 134.247 84 133.848 84H132.574ZM148.65 84C148.251 84 147.904 83.8527 147.61 83.558C147.332 83.2633 147.194 82.9167 147.194 82.518V65.982C147.194 65.5833 147.332 65.2367 147.61 64.942C147.904 64.6473 148.251 64.5 148.65 64.5H149.924C150.322 64.5 150.66 64.6473 150.938 64.942C151.232 65.2367 151.38 65.5833 151.38 65.982V75.576C151.38 75.5933 151.388 75.602 151.406 75.602L151.458 75.576L154.708 71.624C155.332 70.8613 156.129 70.48 157.1 70.48H158.972C159.249 70.48 159.448 70.61 159.57 70.87C159.708 71.13 159.682 71.3727 159.492 71.598L155.046 76.824C154.959 76.928 154.959 77.0407 155.046 77.162L159.544 82.856C159.717 83.0987 159.734 83.35 159.596 83.61C159.474 83.87 159.266 84 158.972 84H157.1C156.129 84 155.34 83.61 154.734 82.83L151.458 78.566C151.44 78.5487 151.423 78.54 151.406 78.54C151.388 78.54 151.38 78.5487 151.38 78.566V82.518C151.38 82.9167 151.232 83.2633 150.938 83.558C150.66 83.8527 150.322 84 149.924 84H148.65Z" fill="#9AA5B4"/>
</svg>
