<svg width="266" height="150" viewBox="0 0 266 150" fill="none" xmlns="http://www.w3.org/2000/svg">
<path d="M0 0H266V150H0V0Z" fill="white"/>
<path d="M29.3 80.63C28.82 80.45 28.43 80.15 28.13 79.73C27.83 79.31 27.68 78.85 27.68 78.35V76.25C27.68 75.75 27.83 75.29 28.13 74.87C28.43 74.45 28.82 74.15 29.3 73.97L42.5 69.08C42.88 68.94 43.24 68.99 43.58 69.23C43.92 69.45 44.09 69.77 44.09 70.19V70.94C44.09 71.44 43.94 71.9 43.64 72.32C43.34 72.74 42.95 73.03 42.47 73.19L30.56 77.27C30.54 77.27 30.53 77.28 30.53 77.3C30.53 77.32 30.54 77.33 30.56 77.33L42.47 81.41C42.95 81.57 43.34 81.86 43.64 82.28C43.94 82.7 44.09 83.16 44.09 83.66V84.41C44.09 84.83 43.92 85.16 43.58 85.4C43.24 85.62 42.88 85.66 42.5 85.52L29.3 80.63ZM50.6736 86C50.2136 86 49.8136 85.83 49.4736 85.49C49.1336 85.15 48.9636 84.75 48.9636 84.29V65.81C48.9636 65.35 49.1336 64.95 49.4736 64.61C49.8136 64.27 50.2136 64.1 50.6736 64.1H52.3836C52.8436 64.1 53.2336 64.27 53.5536 64.61C53.8936 64.95 54.0636 65.35 54.0636 65.81V72.41C54.0636 72.59 54.1536 72.68 54.3336 72.68H60.5136C60.6936 72.68 60.7836 72.59 60.7836 72.41V65.81C60.7836 65.35 60.9436 64.95 61.2636 64.61C61.6036 64.27 62.0036 64.1 62.4636 64.1H64.1736C64.6336 64.1 65.0336 64.27 65.3736 64.61C65.7136 64.95 65.8836 65.35 65.8836 65.81V84.29C65.8836 84.75 65.7136 85.15 65.3736 85.49C65.0336 85.83 64.6336 86 64.1736 86H62.4636C62.0036 86 61.6036 85.83 61.2636 85.49C60.9436 85.15 60.7836 84.75 60.7836 84.29V76.79C60.7836 76.63 60.6936 76.55 60.5136 76.55H54.3336C54.1536 76.55 54.0636 76.63 54.0636 76.79V84.29C54.0636 84.75 53.8936 85.15 53.5536 85.49C53.2336 85.83 52.8436 86 52.3836 86H50.6736ZM76.8282 73.37C75.9282 73.37 75.2482 73.61 74.7882 74.09C74.3282 74.55 74.0382 75.35 73.9182 76.49C73.9182 76.65 73.9882 76.73 74.1282 76.73H79.1982C79.3782 76.73 79.4682 76.64 79.4682 76.46C79.3882 74.4 78.5082 73.37 76.8282 73.37ZM77.5782 86.3C74.8582 86.3 72.7582 85.61 71.2782 84.23C69.8182 82.85 69.0882 80.84 69.0882 78.2C69.0882 75.58 69.7382 73.58 71.0382 72.2C72.3582 70.8 74.2582 70.1 76.7382 70.1C81.4982 70.1 83.9182 72.7 83.9982 77.9C83.9982 78.38 83.8082 78.79 83.4282 79.13C83.0682 79.45 82.6482 79.61 82.1682 79.61H74.1582C73.9582 79.61 73.8782 79.7 73.9182 79.88C74.0782 80.98 74.4982 81.77 75.1782 82.25C75.8782 82.71 76.9182 82.94 78.2982 82.94C79.1982 82.94 80.1682 82.81 81.2082 82.55C81.6282 82.45 81.9982 82.53 82.3182 82.79C82.6582 83.05 82.8282 83.39 82.8282 83.81V83.87C82.8282 84.37 82.6682 84.83 82.3482 85.25C82.0482 85.65 81.6582 85.89 81.1782 85.97C80.0182 86.19 78.8182 86.3 77.5782 86.3ZM94.4218 78.86C91.9818 78.86 90.7618 79.61 90.7618 81.11C90.7618 81.65 90.9218 82.08 91.2418 82.4C91.5618 82.7 91.9918 82.85 92.5318 82.85C93.4918 82.85 94.2718 82.55 94.8718 81.95C95.4718 81.33 95.7718 80.51 95.7718 79.49V79.13C95.7718 78.95 95.6818 78.86 95.5018 78.86H94.4218ZM91.0618 86.3C89.6818 86.3 88.5418 85.86 87.6418 84.98C86.7618 84.08 86.3218 82.92 86.3218 81.5C86.3218 77.86 89.0218 76.04 94.4218 76.04H95.5018C95.6818 76.04 95.7718 75.96 95.7718 75.8V75.65C95.7718 74.89 95.5718 74.34 95.1718 74C94.7918 73.66 94.1418 73.49 93.2218 73.49C92.0018 73.49 90.5418 73.68 88.8418 74.06C88.4218 74.14 88.0418 74.05 87.7018 73.79C87.3818 73.53 87.2218 73.19 87.2218 72.77V72.71C87.2218 72.21 87.3718 71.76 87.6718 71.36C87.9918 70.94 88.3918 70.69 88.8718 70.61C90.6318 70.27 92.1518 70.1 93.4318 70.1C96.0518 70.1 97.9018 70.57 98.9818 71.51C100.082 72.45 100.632 74.01 100.632 76.19V84.29C100.632 84.75 100.462 85.15 100.122 85.49C99.7818 85.83 99.3818 86 98.9218 86H97.8118C97.3318 86 96.9218 85.84 96.5818 85.52C96.2418 85.18 96.0618 84.77 96.0418 84.29V83.96C96.0418 83.94 96.0318 83.93 96.0118 83.93C95.9718 83.93 95.9518 83.94 95.9518 83.96C94.6918 85.52 93.0618 86.3 91.0618 86.3ZM111.285 73.7C109.285 73.7 108.285 75.2 108.285 78.2C108.285 79.72 108.555 80.85 109.095 81.59C109.635 82.33 110.365 82.7 111.285 82.7C112.085 82.7 112.785 82.43 113.385 81.89C113.985 81.35 114.285 80.74 114.285 80.06V76.34C114.285 75.66 113.985 75.05 113.385 74.51C112.785 73.97 112.085 73.7 111.285 73.7ZM109.635 86.3C107.855 86.3 106.395 85.59 105.255 84.17C104.115 82.73 103.545 80.74 103.545 78.2C103.545 75.6 104.095 73.6 105.195 72.2C106.295 70.8 107.775 70.1 109.635 70.1C111.275 70.1 112.765 70.71 114.105 71.93C114.125 71.95 114.145 71.96 114.165 71.96C114.185 71.96 114.195 71.95 114.195 71.93V65.21C114.195 64.75 114.355 64.35 114.675 64.01C115.015 63.67 115.415 63.5 115.875 63.5H117.345C117.805 63.5 118.195 63.67 118.515 64.01C118.855 64.35 119.025 64.75 119.025 65.21V84.29C119.025 84.75 118.855 85.15 118.515 85.49C118.195 85.83 117.805 86 117.345 86H116.205C115.725 86 115.315 85.84 114.975 85.52C114.655 85.18 114.485 84.77 114.465 84.29V84.05C114.465 84.03 114.455 84.02 114.435 84.02L114.375 84.08C113.115 85.56 111.535 86.3 109.635 86.3ZM125.596 86C125.136 86 124.736 85.83 124.396 85.49C124.056 85.15 123.886 84.75 123.886 84.29V72.11C123.886 71.65 124.056 71.25 124.396 70.91C124.736 70.57 125.136 70.4 125.596 70.4H127.276C127.736 70.4 128.136 70.57 128.476 70.91C128.816 71.25 128.986 71.65 128.986 72.11V84.29C128.986 84.75 128.816 85.15 128.476 85.49C128.136 85.83 127.736 86 127.276 86H125.596ZM125.596 67.4C125.136 67.4 124.736 67.23 124.396 66.89C124.056 66.55 123.886 66.15 123.886 65.69V65.21C123.886 64.75 124.056 64.35 124.396 64.01C124.736 63.67 125.136 63.5 125.596 63.5H127.276C127.736 63.5 128.136 63.67 128.476 64.01C128.816 64.35 128.986 64.75 128.986 65.21V65.69C128.986 66.15 128.816 66.55 128.476 66.89C128.136 67.23 127.736 67.4 127.276 67.4H125.596ZM135.363 86C134.903 86 134.503 85.83 134.163 85.49C133.843 85.15 133.683 84.75 133.683 84.29V72.11C133.683 71.65 133.843 71.25 134.163 70.91C134.503 70.57 134.903 70.4 135.363 70.4H136.593C137.073 70.4 137.473 70.57 137.793 70.91C138.133 71.23 138.313 71.63 138.333 72.11L138.363 72.35C138.363 72.37 138.373 72.38 138.393 72.38L138.453 72.32C139.753 70.84 141.313 70.1 143.133 70.1C144.953 70.1 146.263 70.62 147.063 71.66C147.863 72.68 148.263 74.43 148.263 76.91V84.29C148.263 84.75 148.093 85.15 147.753 85.49C147.433 85.83 147.043 86 146.583 86H145.263C144.803 86 144.403 85.83 144.063 85.49C143.723 85.15 143.553 84.75 143.553 84.29V77.06C143.553 75.86 143.393 75.04 143.073 74.6C142.753 74.14 142.173 73.91 141.333 73.91C140.633 73.91 139.983 74.2 139.383 74.78C138.803 75.34 138.513 75.95 138.513 76.61V84.29C138.513 84.75 138.343 85.15 138.003 85.49C137.683 85.83 137.293 86 136.833 86H135.363ZM158.772 73.7C156.872 73.7 155.922 75.1 155.922 77.9C155.922 79.3 156.172 80.35 156.672 81.05C157.192 81.75 157.892 82.1 158.772 82.1C159.552 82.1 160.222 81.84 160.782 81.32C161.342 80.78 161.622 80.16 161.622 79.46V76.55C161.622 75.75 161.342 75.08 160.782 74.54C160.222 73.98 159.552 73.7 158.772 73.7ZM157.182 85.7C155.442 85.7 154.002 85.01 152.862 83.63C151.742 82.23 151.182 80.32 151.182 77.9C151.182 75.42 151.722 73.5 152.802 72.14C153.882 70.78 155.342 70.1 157.182 70.1C158.942 70.1 160.452 70.84 161.712 72.32L161.772 72.38C161.792 72.38 161.802 72.37 161.802 72.35V72.11C161.822 71.63 162.002 71.23 162.342 70.91C162.682 70.57 163.092 70.4 163.572 70.4H164.682C165.142 70.4 165.542 70.57 165.882 70.91C166.222 71.25 166.392 71.65 166.392 72.11V84.65C166.392 87.35 165.642 89.4 164.142 90.8C162.662 92.2 160.512 92.9 157.692 92.9C156.492 92.9 155.412 92.82 154.452 92.66C153.972 92.58 153.572 92.34 153.252 91.94C152.932 91.54 152.772 91.09 152.772 90.59V89.99C152.772 89.59 152.942 89.27 153.282 89.03C153.622 88.79 153.992 88.72 154.392 88.82C155.472 89.08 156.502 89.21 157.482 89.21C158.922 89.21 159.972 88.86 160.632 88.16C161.292 87.48 161.622 86.33 161.622 84.71V83.87C161.622 83.85 161.612 83.84 161.592 83.84C161.572 83.84 161.552 83.85 161.532 83.87C160.392 85.09 158.942 85.7 157.182 85.7ZM181.103 86C180.643 86 180.243 85.83 179.903 85.49C179.563 85.15 179.393 84.75 179.393 84.29V65.81C179.393 65.35 179.563 64.95 179.903 64.61C180.243 64.27 180.643 64.1 181.103 64.1H182.813C183.273 64.1 183.663 64.27 183.983 64.61C184.323 64.95 184.493 65.35 184.493 65.81V72.41C184.493 72.59 184.583 72.68 184.763 72.68H190.943C191.123 72.68 191.213 72.59 191.213 72.41V65.81C191.213 65.35 191.373 64.95 191.693 64.61C192.033 64.27 192.433 64.1 192.893 64.1H194.603C195.063 64.1 195.463 64.27 195.803 64.61C196.143 64.95 196.313 65.35 196.313 65.81V84.29C196.313 84.75 196.143 85.15 195.803 85.49C195.463 85.83 195.063 86 194.603 86H192.893C192.433 86 192.033 85.83 191.693 85.49C191.373 85.15 191.213 84.75 191.213 84.29V76.79C191.213 76.63 191.123 76.55 190.943 76.55H184.763C184.583 76.55 184.493 76.63 184.493 76.79V84.29C184.493 84.75 184.323 85.15 183.983 85.49C183.663 85.83 183.273 86 182.813 86H181.103ZM202.548 68.21C202.088 68.21 201.688 68.04 201.348 67.7C201.008 67.36 200.838 66.96 200.838 66.5V65.81C200.838 65.35 201.008 64.95 201.348 64.61C201.688 64.27 202.088 64.1 202.548 64.1H213.738C214.198 64.1 214.598 64.27 214.938 64.61C215.278 64.95 215.448 65.35 215.448 65.81V66.5C215.448 67.64 215.008 68.57 214.128 69.29L209.598 73.04V73.07C209.598 73.09 209.608 73.1 209.628 73.1H209.988C211.728 73.1 213.118 73.64 214.158 74.72C215.218 75.8 215.748 77.26 215.748 79.1C215.748 81.42 215.038 83.2 213.618 84.44C212.198 85.68 210.158 86.3 207.498 86.3C205.898 86.3 204.278 86.11 202.638 85.73C202.158 85.61 201.758 85.35 201.438 84.95C201.138 84.53 200.988 84.06 200.988 83.54V82.52C200.988 82.12 201.148 81.81 201.468 81.59C201.808 81.35 202.178 81.29 202.578 81.41C204.298 81.97 205.798 82.25 207.078 82.25C208.238 82.25 209.138 81.98 209.778 81.44C210.418 80.9 210.738 80.15 210.738 79.19C210.738 78.21 210.368 77.52 209.628 77.12C208.888 76.72 207.508 76.51 205.488 76.49C205.028 76.49 204.628 76.33 204.288 76.01C203.948 75.67 203.778 75.27 203.778 74.81V74.75C203.778 73.63 204.208 72.7 205.068 71.96L209.328 68.27V68.24C209.328 68.22 209.318 68.21 209.298 68.21H202.548ZM222.27 85.52C221.89 85.66 221.53 85.62 221.19 85.4C220.85 85.16 220.68 84.83 220.68 84.41V83.66C220.68 83.16 220.83 82.7 221.13 82.28C221.43 81.86 221.82 81.57 222.3 81.41L234.21 77.33C234.23 77.33 234.24 77.32 234.24 77.3C234.24 77.28 234.23 77.27 234.21 77.27L222.3 73.19C221.82 73.03 221.43 72.74 221.13 72.32C220.83 71.9 220.68 71.44 220.68 70.94V70.19C220.68 69.77 220.85 69.45 221.19 69.23C221.53 68.99 221.89 68.94 222.27 69.08L235.47 73.97C235.95 74.15 236.34 74.45 236.64 74.87C236.94 75.29 237.09 75.75 237.09 76.25V78.35C237.09 78.85 236.94 79.31 236.64 79.73C236.34 80.15 235.95 80.45 235.47 80.63L222.27 85.52Z" fill="#9AA5B4"/>
</svg>
