<svg width="266" height="150" viewBox="0 0 266 150" fill="none" xmlns="http://www.w3.org/2000/svg">
<path d="M0 0H266V150H0V0Z" fill="white"/>
<path d="M36.08 80.988C35.632 80.82 35.268 80.54 34.988 80.148C34.708 79.756 34.568 79.3267 34.568 78.86V76.9C34.568 76.4333 34.708 76.004 34.988 75.612C35.268 75.22 35.632 74.94 36.08 74.772L48.4 70.208C48.7547 70.0773 49.0907 70.124 49.408 70.348C49.7253 70.5533 49.884 70.852 49.884 71.244V71.944C49.884 72.4107 49.744 72.84 49.464 73.232C49.184 73.624 48.82 73.8947 48.372 74.044L37.256 77.852C37.2373 77.852 37.228 77.8613 37.228 77.88C37.228 77.8987 37.2373 77.908 37.256 77.908L48.372 81.716C48.82 81.8653 49.184 82.136 49.464 82.528C49.744 82.92 49.884 83.3493 49.884 83.816V84.516C49.884 84.908 49.7253 85.216 49.408 85.44C49.0907 85.6453 48.7547 85.6827 48.4 85.552L36.08 80.988ZM56.0287 86C55.5994 86 55.226 85.8413 54.9087 85.524C54.5914 85.2067 54.4327 84.8333 54.4327 84.404V67.156C54.4327 66.7267 54.5914 66.3533 54.9087 66.036C55.226 65.7187 55.5994 65.56 56.0287 65.56H57.6247C58.054 65.56 58.418 65.7187 58.7167 66.036C59.034 66.3533 59.1927 66.7267 59.1927 67.156V73.316C59.1927 73.484 59.2767 73.568 59.4447 73.568H65.2127C65.3807 73.568 65.4647 73.484 65.4647 73.316V67.156C65.4647 66.7267 65.614 66.3533 65.9127 66.036C66.23 65.7187 66.6034 65.56 67.0327 65.56H68.6287C69.058 65.56 69.4314 65.7187 69.7487 66.036C70.066 66.3533 70.2247 66.7267 70.2247 67.156V84.404C70.2247 84.8333 70.066 85.2067 69.7487 85.524C69.4314 85.8413 69.058 86 68.6287 86H67.0327C66.6034 86 66.23 85.8413 65.9127 85.524C65.614 85.2067 65.4647 84.8333 65.4647 84.404V77.404C65.4647 77.2547 65.3807 77.18 65.2127 77.18H59.4447C59.2767 77.18 59.1927 77.2547 59.1927 77.404V84.404C59.1927 84.8333 59.034 85.2067 58.7167 85.524C58.418 85.8413 58.054 86 57.6247 86H56.0287ZM80.4397 74.212C79.5997 74.212 78.965 74.436 78.5357 74.884C78.1063 75.3133 77.8357 76.06 77.7237 77.124C77.7237 77.2733 77.789 77.348 77.9197 77.348H82.6517C82.8197 77.348 82.9037 77.264 82.9037 77.096C82.829 75.1733 82.0077 74.212 80.4397 74.212ZM81.1397 86.28C78.601 86.28 76.641 85.636 75.2597 84.348C73.897 83.06 73.2157 81.184 73.2157 78.72C73.2157 76.2747 73.8223 74.408 75.0357 73.12C76.2677 71.8133 78.041 71.16 80.3557 71.16C84.7983 71.16 87.057 73.5867 87.1317 78.44C87.1317 78.888 86.9543 79.2707 86.5997 79.588C86.2637 79.8867 85.8717 80.036 85.4237 80.036H77.9477C77.761 80.036 77.6863 80.12 77.7237 80.288C77.873 81.3147 78.265 82.052 78.8997 82.5C79.553 82.9293 80.5237 83.144 81.8117 83.144C82.6517 83.144 83.557 83.0227 84.5277 82.78C84.9197 82.6867 85.265 82.7613 85.5637 83.004C85.881 83.2467 86.0397 83.564 86.0397 83.956V84.012C86.0397 84.4787 85.8903 84.908 85.5917 85.3C85.3117 85.6733 84.9477 85.8973 84.4997 85.972C83.417 86.1773 82.297 86.28 81.1397 86.28ZM96.8603 79.336C94.583 79.336 93.4443 80.036 93.4443 81.436C93.4443 81.94 93.5937 82.3413 93.8923 82.64C94.191 82.92 94.5923 83.06 95.0963 83.06C95.9923 83.06 96.7203 82.78 97.2803 82.22C97.8403 81.6413 98.1203 80.876 98.1203 79.924V79.588C98.1203 79.42 98.0363 79.336 97.8683 79.336H96.8603ZM93.7243 86.28C92.4363 86.28 91.3723 85.8693 90.5323 85.048C89.711 84.208 89.3003 83.1253 89.3003 81.8C89.3003 78.4027 91.8203 76.704 96.8603 76.704H97.8683C98.0363 76.704 98.1203 76.6293 98.1203 76.48V76.34C98.1203 75.6307 97.9337 75.1173 97.5603 74.8C97.2057 74.4827 96.599 74.324 95.7403 74.324C94.6017 74.324 93.239 74.5013 91.6523 74.856C91.2603 74.9307 90.9057 74.8467 90.5883 74.604C90.2897 74.3613 90.1403 74.044 90.1403 73.652V73.596C90.1403 73.1293 90.2803 72.7093 90.5603 72.336C90.859 71.944 91.2323 71.7107 91.6803 71.636C93.323 71.3187 94.7417 71.16 95.9363 71.16C98.3817 71.16 100.108 71.5987 101.116 72.476C102.143 73.3533 102.656 74.8093 102.656 76.844V84.404C102.656 84.8333 102.498 85.2067 102.18 85.524C101.863 85.8413 101.49 86 101.06 86H100.024C99.5763 86 99.1937 85.8507 98.8763 85.552C98.559 85.2347 98.391 84.852 98.3723 84.404V84.096C98.3723 84.0773 98.363 84.068 98.3443 84.068C98.307 84.068 98.2883 84.0773 98.2883 84.096C97.1123 85.552 95.591 86.28 93.7243 86.28ZM112.599 74.52C110.733 74.52 109.799 75.92 109.799 78.72C109.799 80.1387 110.051 81.1933 110.555 81.884C111.059 82.5747 111.741 82.92 112.599 82.92C113.346 82.92 113.999 82.668 114.559 82.164C115.119 81.66 115.399 81.0907 115.399 80.456V76.984C115.399 76.3493 115.119 75.78 114.559 75.276C113.999 74.772 113.346 74.52 112.599 74.52ZM111.059 86.28C109.398 86.28 108.035 85.6173 106.971 84.292C105.907 82.948 105.375 81.0907 105.375 78.72C105.375 76.2933 105.889 74.4267 106.915 73.12C107.942 71.8133 109.323 71.16 111.059 71.16C112.59 71.16 113.981 71.7293 115.231 72.868C115.25 72.8867 115.269 72.896 115.287 72.896C115.306 72.896 115.315 72.8867 115.315 72.868V66.596C115.315 66.1667 115.465 65.7933 115.763 65.476C116.081 65.1587 116.454 65 116.883 65H118.255C118.685 65 119.049 65.1587 119.347 65.476C119.665 65.7933 119.823 66.1667 119.823 66.596V84.404C119.823 84.8333 119.665 85.2067 119.347 85.524C119.049 85.8413 118.685 86 118.255 86H117.191C116.743 86 116.361 85.8507 116.043 85.552C115.745 85.2347 115.586 84.852 115.567 84.404V84.18C115.567 84.1613 115.558 84.152 115.539 84.152L115.483 84.208C114.307 85.5893 112.833 86.28 111.059 86.28ZM125.957 86C125.527 86 125.154 85.8413 124.837 85.524C124.519 85.2067 124.361 84.8333 124.361 84.404V73.036C124.361 72.6067 124.519 72.2333 124.837 71.916C125.154 71.5987 125.527 71.44 125.957 71.44H127.525C127.954 71.44 128.327 71.5987 128.645 71.916C128.962 72.2333 129.121 72.6067 129.121 73.036V84.404C129.121 84.8333 128.962 85.2067 128.645 85.524C128.327 85.8413 127.954 86 127.525 86H125.957ZM125.957 68.64C125.527 68.64 125.154 68.4813 124.837 68.164C124.519 67.8467 124.361 67.4733 124.361 67.044V66.596C124.361 66.1667 124.519 65.7933 124.837 65.476C125.154 65.1587 125.527 65 125.957 65H127.525C127.954 65 128.327 65.1587 128.645 65.476C128.962 65.7933 129.121 66.1667 129.121 66.596V67.044C129.121 67.4733 128.962 67.8467 128.645 68.164C128.327 68.4813 127.954 68.64 127.525 68.64H125.957ZM135.072 86C134.643 86 134.27 85.8413 133.952 85.524C133.654 85.2067 133.504 84.8333 133.504 84.404V73.036C133.504 72.6067 133.654 72.2333 133.952 71.916C134.27 71.5987 134.643 71.44 135.072 71.44H136.22C136.668 71.44 137.042 71.5987 137.34 71.916C137.658 72.2147 137.826 72.588 137.844 73.036L137.872 73.26C137.872 73.2787 137.882 73.288 137.9 73.288L137.956 73.232C139.17 71.8507 140.626 71.16 142.324 71.16C144.023 71.16 145.246 71.6453 145.992 72.616C146.739 73.568 147.112 75.2013 147.112 77.516V84.404C147.112 84.8333 146.954 85.2067 146.636 85.524C146.338 85.8413 145.974 86 145.544 86H144.312C143.883 86 143.51 85.8413 143.192 85.524C142.875 85.2067 142.716 84.8333 142.716 84.404V77.656C142.716 76.536 142.567 75.7707 142.268 75.36C141.97 74.9307 141.428 74.716 140.644 74.716C139.991 74.716 139.384 74.9867 138.824 75.528C138.283 76.0507 138.012 76.62 138.012 77.236V84.404C138.012 84.8333 137.854 85.2067 137.536 85.524C137.238 85.8413 136.874 86 136.444 86H135.072ZM156.92 74.52C155.147 74.52 154.26 75.8267 154.26 78.44C154.26 79.7467 154.493 80.7267 154.96 81.38C155.445 82.0333 156.099 82.36 156.92 82.36C157.648 82.36 158.273 82.1173 158.796 81.632C159.319 81.128 159.58 80.5493 159.58 79.896V77.18C159.58 76.4333 159.319 75.808 158.796 75.304C158.273 74.7813 157.648 74.52 156.92 74.52ZM155.436 85.72C153.812 85.72 152.468 85.076 151.404 83.788C150.359 82.4813 149.836 80.6987 149.836 78.44C149.836 76.1253 150.34 74.3333 151.348 73.064C152.356 71.7947 153.719 71.16 155.436 71.16C157.079 71.16 158.488 71.8507 159.664 73.232L159.72 73.288C159.739 73.288 159.748 73.2787 159.748 73.26V73.036C159.767 72.588 159.935 72.2147 160.252 71.916C160.569 71.5987 160.952 71.44 161.4 71.44H162.436C162.865 71.44 163.239 71.5987 163.556 71.916C163.873 72.2333 164.032 72.6067 164.032 73.036V84.74C164.032 87.26 163.332 89.1733 161.932 90.48C160.551 91.7867 158.544 92.44 155.912 92.44C154.792 92.44 153.784 92.3653 152.888 92.216C152.44 92.1413 152.067 91.9173 151.768 91.544C151.469 91.1707 151.32 90.7507 151.32 90.284V89.724C151.32 89.3507 151.479 89.052 151.796 88.828C152.113 88.604 152.459 88.5387 152.832 88.632C153.84 88.8747 154.801 88.996 155.716 88.996C157.06 88.996 158.04 88.6693 158.656 88.016C159.272 87.3813 159.58 86.308 159.58 84.796V84.012C159.58 83.9933 159.571 83.984 159.552 83.984C159.533 83.984 159.515 83.9933 159.496 84.012C158.432 85.1507 157.079 85.72 155.436 85.72ZM177.763 86C177.334 86 176.96 85.8413 176.643 85.524C176.326 85.2067 176.167 84.8333 176.167 84.404V67.156C176.167 66.7267 176.326 66.3533 176.643 66.036C176.96 65.7187 177.334 65.56 177.763 65.56H179.359C179.788 65.56 180.152 65.7187 180.451 66.036C180.768 66.3533 180.927 66.7267 180.927 67.156V73.316C180.927 73.484 181.011 73.568 181.179 73.568H186.947C187.115 73.568 187.199 73.484 187.199 73.316V67.156C187.199 66.7267 187.348 66.3533 187.647 66.036C187.964 65.7187 188.338 65.56 188.767 65.56H190.363C190.792 65.56 191.166 65.7187 191.483 66.036C191.8 66.3533 191.959 66.7267 191.959 67.156V84.404C191.959 84.8333 191.8 85.2067 191.483 85.524C191.166 85.8413 190.792 86 190.363 86H188.767C188.338 86 187.964 85.8413 187.647 85.524C187.348 85.2067 187.199 84.8333 187.199 84.404V77.404C187.199 77.2547 187.115 77.18 186.947 77.18H181.179C181.011 77.18 180.927 77.2547 180.927 77.404V84.404C180.927 84.8333 180.768 85.2067 180.451 85.524C180.152 85.8413 179.788 86 179.359 86H177.763ZM198.618 78.3V78.328C198.618 78.3467 198.627 78.356 198.646 78.356H203.266C203.434 78.356 203.518 78.2813 203.518 78.132V71.356C203.518 71.3373 203.509 71.328 203.49 71.328C203.453 71.328 203.434 71.3373 203.434 71.356L198.618 78.3ZM195.986 82.08C195.557 82.08 195.183 81.9213 194.866 81.604C194.567 81.2867 194.418 80.9133 194.418 80.484V79.952C194.418 78.9067 194.726 77.9453 195.342 77.068L202.594 66.848C203.21 65.9893 204.041 65.56 205.086 65.56H206.486C206.915 65.56 207.279 65.7187 207.578 66.036C207.895 66.3533 208.054 66.7267 208.054 67.156V78.132C208.054 78.2813 208.138 78.356 208.306 78.356H209.426C209.855 78.356 210.229 78.5147 210.546 78.832C210.863 79.1493 211.022 79.5227 211.022 79.952V80.484C211.022 80.9133 210.863 81.2867 210.546 81.604C210.229 81.9213 209.855 82.08 209.426 82.08H208.306C208.138 82.08 208.054 82.164 208.054 82.332V84.404C208.054 84.8333 207.895 85.2067 207.578 85.524C207.279 85.8413 206.915 86 206.486 86H205.086C204.657 86 204.283 85.8413 203.966 85.524C203.667 85.2067 203.518 84.8333 203.518 84.404V82.332C203.518 82.164 203.434 82.08 203.266 82.08H195.986ZM216.185 85.552C215.83 85.6827 215.494 85.6453 215.177 85.44C214.86 85.216 214.701 84.908 214.701 84.516V83.816C214.701 83.3493 214.841 82.92 215.121 82.528C215.401 82.136 215.765 81.8653 216.213 81.716L227.329 77.908C227.348 77.908 227.357 77.8987 227.357 77.88C227.357 77.8613 227.348 77.852 227.329 77.852L216.213 74.044C215.765 73.8947 215.401 73.624 215.121 73.232C214.841 72.84 214.701 72.4107 214.701 71.944V71.244C214.701 70.852 214.86 70.5533 215.177 70.348C215.494 70.124 215.83 70.0773 216.185 70.208L228.505 74.772C228.953 74.94 229.317 75.22 229.597 75.612C229.877 76.004 230.017 76.4333 230.017 76.9V78.86C230.017 79.3267 229.877 79.756 229.597 80.148C229.317 80.54 228.953 80.82 228.505 80.988L216.185 85.552Z" fill="#9AA5B4"/>
</svg>
