<svg width="266" height="150" viewBox="0 0 266 150" fill="none" xmlns="http://www.w3.org/2000/svg">
<path d="M0 0H266V150H0V0Z" fill="white"/>
<path d="M244.391 32H144C142.895 32 142 32.8954 142 34C142 35.1046 142.895 36 144 36H244.391C245.496 36 246.391 35.1046 246.391 34C246.391 32.8954 245.496 32 244.391 32Z" fill="#A0AEC0"/>
<path d="M91.5 32H22.5C21.1193 32 20 33.1193 20 34.5C20 35.8807 21.1193 37 22.5 37H91.5C92.8807 37 94 35.8807 94 34.5C94 33.1193 92.8807 32 91.5 32Z" fill="#1D2024"/>
<path d="M217 40H144C142.895 40 142 40.8954 142 42C142 43.1046 142.895 44 144 44H217C218.105 44 219 43.1046 219 42C219 40.8954 218.105 40 217 40Z" fill="#A0AEC0"/>
<path d="M68 74H22C20.8954 74 20 74.8954 20 76V116C20 117.105 20.8954 118 22 118H68C69.1046 118 70 117.105 70 116V76C70 74.8954 69.1046 74 68 74Z" fill="#E2E8F0"/>
<path d="M49.366 83H39.6898C39.3153 83 39 83.3105 39 83.6792V94.7014C39 95.1089 39.3153 95.4194 39.6898 95.4194H49.3069C49.6813 95.4194 49.9967 95.1089 49.9967 94.7402V83.6792C50.0361 83.3105 49.7208 83 49.366 83ZM48.9916 84.0285V89.6754C48.8339 89.7724 48.7354 89.8306 48.6172 89.9277C48.3018 90.1411 48.0456 90.3934 47.7697 90.6069C46.9223 91.3248 46.3508 91.7906 45.5625 91.4801C45.4049 91.4219 45.2472 91.2666 45.0304 91.1114L44.9713 91.0532C44.4983 90.6845 43.9268 90.2188 43.2962 90.0247C42.1335 89.656 41.1481 90.277 40.2416 90.8591C40.1824 90.8591 40.143 90.9173 40.143 90.9173V84.0285H48.9916ZM40.0642 94.3909V92.2175C40.281 92.1205 40.5372 91.9652 40.7539 91.81C41.5422 91.3443 42.232 90.8785 42.9612 91.092C43.4341 91.2472 43.848 91.5577 44.2815 91.9264L44.3407 91.9846C44.5575 92.1981 44.8136 92.3921 45.1881 92.5086C45.5034 92.6056 45.7596 92.6638 46.0355 92.6638C47.0406 92.6638 47.8289 91.9846 48.4595 91.4219C48.6763 91.2666 48.8339 91.1114 48.9916 90.9561V94.4297H40.0642V94.3909Z" fill="#9AA5B4"/>
<path d="M46.0946 89.2097C47.0997 89.2097 47.9274 88.3753 47.9274 87.405C47.9274 86.4347 47.08 85.6003 46.0946 85.6003C45.1093 85.6003 44.2618 86.4347 44.2618 87.405C44.2618 88.3753 45.1093 89.2097 46.0946 89.2097ZM46.0946 86.6288C46.5085 86.6288 46.8829 86.9975 46.8829 87.405C46.8829 87.8125 46.5085 88.1812 46.0946 88.1812C45.6808 88.1812 45.3063 87.8125 45.3063 87.405C45.3063 86.9975 45.6808 86.6288 46.0946 86.6288Z" fill="#9AA5B4"/>
<path d="M51 108H25C24.4477 108 24 108.448 24 109C24 109.552 24.4477 110 25 110H51C51.5523 110 52 109.552 52 109C52 108.448 51.5523 108 51 108Z" fill="#A0AEC0"/>
<path d="M57 112H25C24.4477 112 24 112.448 24 113C24 113.552 24.4477 114 25 114H57C57.5523 114 58 113.552 58 113C58 112.448 57.5523 112 57 112Z" fill="#A0AEC0"/>
<path d="M33 104H25C24.4477 104 24 104.448 24 105C24 105.552 24.4477 106 25 106H33C33.5523 106 34 105.552 34 105C34 104.448 33.5523 104 33 104Z" fill="#1D2024"/>
<path d="M245 74H199C197.895 74 197 74.8954 197 76V116C197 117.105 197.895 118 199 118H245C246.105 118 247 117.105 247 116V76C247 74.8954 246.105 74 245 74Z" fill="#E2E8F0"/>
<path d="M226.366 83H216.69C216.315 83 216 83.3105 216 83.6792V94.7014C216 95.1089 216.315 95.4194 216.69 95.4194H226.307C226.681 95.4194 226.997 95.1089 226.997 94.7402V83.6792C227.036 83.3105 226.721 83 226.366 83ZM225.992 84.0285V89.6754C225.834 89.7724 225.735 89.8306 225.617 89.9277C225.302 90.1411 225.046 90.3934 224.77 90.6069C223.922 91.3248 223.351 91.7906 222.563 91.4801C222.405 91.4219 222.247 91.2666 222.03 91.1114L221.971 91.0532C221.498 90.6845 220.927 90.2188 220.296 90.0247C219.133 89.656 218.148 90.277 217.242 90.8591C217.182 90.8591 217.143 90.9173 217.143 90.9173V84.0285H225.992ZM217.064 94.3909V92.2175C217.281 92.1205 217.537 91.9652 217.754 91.81C218.542 91.3443 219.232 90.8785 219.961 91.092C220.434 91.2472 220.848 91.5577 221.282 91.9264L221.341 91.9846C221.557 92.1981 221.814 92.3921 222.188 92.5086C222.503 92.6056 222.76 92.6638 223.035 92.6638C224.041 92.6638 224.829 91.9846 225.459 91.4219C225.676 91.2666 225.834 91.1114 225.992 90.9561V94.4297H217.064V94.3909Z" fill="#9AA5B4"/>
<path d="M223.094 89.2097C224.1 89.2097 224.927 88.3753 224.927 87.405C224.927 86.4347 224.08 85.6003 223.094 85.6003C222.109 85.6003 221.262 86.4347 221.262 87.405C221.262 88.3753 222.109 89.2097 223.094 89.2097ZM223.094 86.6288C223.508 86.6288 223.883 86.9975 223.883 87.405C223.883 87.8125 223.508 88.1812 223.094 88.1812C222.681 88.1812 222.306 87.8125 222.306 87.405C222.306 86.9975 222.681 86.6288 223.094 86.6288Z" fill="#9AA5B4"/>
<path d="M228 108H202C201.448 108 201 108.448 201 109C201 109.552 201.448 110 202 110H228C228.552 110 229 109.552 229 109C229 108.448 228.552 108 228 108Z" fill="#A0AEC0"/>
<path d="M234 112H202C201.448 112 201 112.448 201 113C201 113.552 201.448 114 202 114H234C234.552 114 235 113.552 235 113C235 112.448 234.552 112 234 112Z" fill="#A0AEC0"/>
<path d="M210 104H202C201.448 104 201 104.448 201 105C201 105.552 201.448 106 202 106H210C210.552 106 211 105.552 211 105C211 104.448 210.552 104 210 104Z" fill="#1D2024"/>
<path d="M186 74H140C138.895 74 138 74.8954 138 76V116C138 117.105 138.895 118 140 118H186C187.105 118 188 117.105 188 116V76C188 74.8954 187.105 74 186 74Z" fill="#E2E8F0"/>
<path d="M167.366 83H157.69C157.315 83 157 83.3105 157 83.6792V94.7014C157 95.1089 157.315 95.4194 157.69 95.4194H167.307C167.681 95.4194 167.997 95.1089 167.997 94.7402V83.6792C168.036 83.3105 167.721 83 167.366 83ZM166.992 84.0285V89.6754C166.834 89.7724 166.735 89.8306 166.617 89.9277C166.302 90.1411 166.046 90.3934 165.77 90.6069C164.922 91.3248 164.351 91.7906 163.563 91.4801C163.405 91.4219 163.247 91.2666 163.03 91.1114L162.971 91.0532C162.498 90.6845 161.927 90.2188 161.296 90.0247C160.133 89.656 159.148 90.277 158.242 90.8591C158.182 90.8591 158.143 90.9173 158.143 90.9173V84.0285H166.992ZM158.064 94.3909V92.2175C158.281 92.1205 158.537 91.9652 158.754 91.81C159.542 91.3443 160.232 90.8785 160.961 91.092C161.434 91.2472 161.848 91.5577 162.282 91.9264L162.341 91.9846C162.557 92.1981 162.814 92.3921 163.188 92.5086C163.503 92.6056 163.76 92.6638 164.035 92.6638C165.041 92.6638 165.829 91.9846 166.459 91.4219C166.676 91.2666 166.834 91.1114 166.992 90.9561V94.4297H158.064V94.3909Z" fill="#9AA5B4"/>
<path d="M164.095 89.2097C165.1 89.2097 165.927 88.3753 165.927 87.405C165.927 86.4347 165.08 85.6003 164.095 85.6003C163.109 85.6003 162.262 86.4347 162.262 87.405C162.262 88.3753 163.109 89.2097 164.095 89.2097ZM164.095 86.6288C164.508 86.6288 164.883 86.9975 164.883 87.405C164.883 87.8125 164.508 88.1812 164.095 88.1812C163.681 88.1812 163.306 87.8125 163.306 87.405C163.306 86.9975 163.681 86.6288 164.095 86.6288Z" fill="#9AA5B4"/>
<path d="M169 108H143C142.448 108 142 108.448 142 109C142 109.552 142.448 110 143 110H169C169.552 110 170 109.552 170 109C170 108.448 169.552 108 169 108Z" fill="#A0AEC0"/>
<path d="M175 112H143C142.448 112 142 112.448 142 113C142 113.552 142.448 114 143 114H175C175.552 114 176 113.552 176 113C176 112.448 175.552 112 175 112Z" fill="#A0AEC0"/>
<path d="M151 104H143C142.448 104 142 104.448 142 105C142 105.552 142.448 106 143 106H151C151.552 106 152 105.552 152 105C152 104.448 151.552 104 151 104Z" fill="#1D2024"/>
<path d="M127 74H81C79.8954 74 79 74.8954 79 76V116C79 117.105 79.8954 118 81 118H127C128.105 118 129 117.105 129 116V76C129 74.8954 128.105 74 127 74Z" fill="#E2E8F0"/>
<path d="M108.366 83H98.6898C98.3153 83 98 83.3105 98 83.6792V94.7014C98 95.1089 98.3153 95.4194 98.6898 95.4194H108.307C108.681 95.4194 108.997 95.1089 108.997 94.7402V83.6792C109.036 83.3105 108.721 83 108.366 83ZM107.992 84.0285V89.6754C107.834 89.7724 107.735 89.8306 107.617 89.9277C107.302 90.1411 107.046 90.3934 106.77 90.6069C105.922 91.3248 105.351 91.7906 104.563 91.4801C104.405 91.4219 104.247 91.2666 104.03 91.1114L103.971 91.0532C103.498 90.6845 102.927 90.2188 102.296 90.0247C101.133 89.656 100.148 90.277 99.2416 90.8591C99.1824 90.8591 99.143 90.9173 99.143 90.9173V84.0285H107.992ZM99.0642 94.3909V92.2175C99.281 92.1205 99.5372 91.9652 99.7539 91.81C100.542 91.3443 101.232 90.8785 101.961 91.092C102.434 91.2472 102.848 91.5577 103.282 91.9264L103.341 91.9846C103.557 92.1981 103.814 92.3921 104.188 92.5086C104.503 92.6056 104.76 92.6638 105.035 92.6638C106.041 92.6638 106.829 91.9846 107.459 91.4219C107.676 91.2666 107.834 91.1114 107.992 90.9561V94.4297H99.0642V94.3909Z" fill="#9AA5B4"/>
<path d="M105.095 89.2097C106.1 89.2097 106.927 88.3753 106.927 87.405C106.927 86.4347 106.08 85.6003 105.095 85.6003C104.109 85.6003 103.262 86.4347 103.262 87.405C103.262 88.3753 104.109 89.2097 105.095 89.2097ZM105.095 86.6288C105.508 86.6288 105.883 86.9975 105.883 87.405C105.883 87.8125 105.508 88.1812 105.095 88.1812C104.681 88.1812 104.306 87.8125 104.306 87.405C104.306 86.9975 104.681 86.6288 105.095 86.6288Z" fill="#9AA5B4"/>
<path d="M110 108H84C83.4477 108 83 108.448 83 109C83 109.552 83.4477 110 84 110H110C110.552 110 111 109.552 111 109C111 108.448 110.552 108 110 108Z" fill="#A0AEC0"/>
<path d="M116 112H84C83.4477 112 83 112.448 83 113C83 113.552 83.4477 114 84 114H116C116.552 114 117 113.552 117 113C117 112.448 116.552 112 116 112Z" fill="#A0AEC0"/>
<path d="M92 104H84C83.4477 104 83 104.448 83 105C83 105.552 83.4477 106 84 106H92C92.5523 106 93 105.552 93 105C93 104.448 92.5523 104 92 104Z" fill="#1D2024"/>
</svg>
